<?xml version="1.0" encoding="UTF-8" standalone="no"?>
<svg
   xmlns:dc="http://purl.org/dc/elements/1.1/"
   xmlns:cc="http://creativecommons.org/ns#"
   xmlns:rdf="http://www.w3.org/1999/02/22-rdf-syntax-ns#"
   xmlns:svg="http://www.w3.org/2000/svg"
   xmlns="http://www.w3.org/2000/svg"
   xmlns:sodipodi="http://sodipodi.sourceforge.net/DTD/sodipodi-0.dtd"
   xmlns:inkscape="http://www.inkscape.org/namespaces/inkscape"
   width="150mm"
   height="110mm"
   viewBox="0 0 150 110"
   version="1.1"
   id="svg8"
   inkscape:version="1.0.2 (e86c870879, 2021-01-15)"
   sodipodi:docname="back struts.svg">
  <defs
     id="defs2" />
  <sodipodi:namedview
     id="base"
     pagecolor="#ffffff"
     bordercolor="#666666"
     borderopacity="1.0"
     inkscape:pageopacity="0.0"
     inkscape:pageshadow="2"
     inkscape:zoom="2.3139015"
     inkscape:cx="283.46457"
     inkscape:cy="207.87402"
     inkscape:document-units="mm"
     inkscape:current-layer="layer1"
     inkscape:document-rotation="0"
     showgrid="false"
     inkscape:showpageshadow="true"
     inkscape:snap-bbox="true"
     inkscape:bbox-nodes="true"
     inkscape:snap-page="true">
    <inkscape:grid
       type="xygrid"
       id="grid833"
       units="mm"
       spacingx="0.25"
       spacingy="0.25"
       empspacing="4" />
  </sodipodi:namedview>
  <metadata
     id="metadata5">
    <rdf:RDF>
      <cc:Work
         rdf:about="">
        <dc:format>image/svg+xml</dc:format>
        <dc:type
           rdf:resource="http://purl.org/dc/dcmitype/StillImage" />
        <dc:title />
      </cc:Work>
    </rdf:RDF>
  </metadata>
  <g
     inkscape:label="Layer 1"
     inkscape:groupmode="layer"
     id="layer1">
    <path
       id="rect2694"
       style="display:inline;fill:#d4aa00;fill-opacity:1;stroke:none;stroke-width:15.1181;stroke-linecap:round;stroke-linejoin:round"
       d="M 136.0625 37.794922 L 136.0625 62.037109 L 191.19141 117.16602 L 84.714844 117.16602 L 40.466797 72.917969 A 3.7795276 3.7795276 0 0 0 37.90625 71.810547 A 3.7795276 3.7795276 0 0 0 35.123047 72.917969 A 3.7795276 3.7795276 0 0 0 35.123047 78.263672 L 74.025391 117.16602 L 22.677734 117.16602 L 22.677734 216.99805 L 108.04102 302.36133 L 35.123047 375.28125 L 40.466797 380.625 L 113.38672 307.70703 L 133.39062 327.71094 L 138.73438 322.36719 L 118.73047 302.36328 L 188.97656 232.11719 L 278.11914 321.25977 L 300.14844 321.25977 L 383.62109 237.78516 L 423.30859 277.47266 L 423.30859 296.69336 C 423.30859 305.06879 430.05035 311.81054 438.42578 311.81055 L 438.75 311.81055 L 428.19336 322.36719 L 433.53906 327.71094 L 449.43945 311.81055 L 457.32227 311.81055 C 460.1322 311.81055 462.75073 311.03963 465 309.71484 L 529.29688 374.01172 A 3.7795276 3.7795276 0 0 0 534.64062 374.01172 A 3.7795276 3.7795276 0 0 0 534.64062 368.66602 L 470.34375 304.36914 C 471.66854 302.11987 472.43945 299.50329 472.43945 296.69336 L 472.43945 288.81055 L 544.25195 216.99805 L 544.25195 117.16602 L 504.24023 117.16602 L 538.41992 82.986328 A 3.7795276 3.7795276 0 0 0 538.41992 77.642578 A 3.7795276 3.7795276 0 0 0 533.07617 77.642578 L 493.55273 117.16602 L 360 117.16602 L 360 113.38672 L 352.44141 113.38672 L 352.44141 117.16602 L 348.66211 117.16602 L 348.66211 124.72461 L 352.44141 124.72461 L 352.44141 133.55273 L 328.46289 157.53125 C 326.5065 155.92449 324.00034 154.96094 321.25977 154.96094 L 287.24414 154.96094 L 287.24414 117.16602 L 283.46484 117.16602 L 201.88086 117.16602 L 143.62109 58.908203 L 143.62109 37.794922 L 136.0625 37.794922 z M 37.794922 124.72461 L 81.583984 124.72461 L 183.63086 226.77148 L 113.38477 297.01758 L 30.236328 213.86719 L 30.236328 132.2832 C 30.236328 128.06369 33.575404 124.72461 37.794922 124.72461 z M 92.273438 124.72461 L 198.75 124.72461 L 235.44141 161.41602 C 234.73734 162.8947 234.33203 164.54615 234.33203 166.29883 L 234.33203 176.07031 L 188.97656 221.42578 L 92.273438 124.72461 z M 209.43945 124.72461 L 279.68555 124.72461 L 279.68555 154.96094 L 245.66992 154.96094 C 243.91695 154.96094 242.26598 155.36798 240.78711 156.07227 L 209.43945 124.72461 z M 360 124.72461 L 485.99414 124.72461 L 383.62305 227.0957 L 332.59961 176.07422 L 332.59961 166.29883 C 332.59961 165.60537 332.52829 164.92992 332.41016 164.27148 L 360 136.68359 L 360 124.72461 z M 496.68164 124.72461 L 529.13477 124.72461 C 533.35427 124.72461 536.69336 128.06369 536.69336 132.2832 L 536.69336 213.86719 L 472.43945 278.12109 L 472.43945 255.11719 C 472.43945 246.74175 465.6977 240.00001 457.32227 240 L 438.42578 240 C 430.05035 239.99999 423.30859 246.74175 423.30859 255.11719 L 423.30859 266.78125 L 388.9668 232.44141 L 496.68164 124.72461 z M 245.66992 162.51953 L 321.25977 162.51953 C 323.35362 162.51953 325.03906 164.20497 325.03906 166.29883 L 325.03906 241.89062 C 325.03906 243.98448 323.35362 245.66992 321.25977 245.66992 L 245.66992 245.66992 C 243.57607 245.66992 241.89062 243.98448 241.89062 241.89062 L 241.89062 166.29883 C 241.89063 164.20497 243.57607 162.51953 245.66992 162.51953 z M 234.33203 186.76172 L 234.33203 241.89062 C 234.33203 248.1722 239.38835 253.22852 245.66992 253.22852 L 321.25977 253.22852 C 327.54133 253.22852 332.59961 248.1722 332.59961 241.89062 L 332.59961 186.76367 L 378.27734 232.44141 L 297.01758 313.70117 L 281.25 313.70117 L 194.32031 226.77344 L 234.33203 186.76172 z M 438.42578 247.55859 L 457.32227 247.55859 C 461.50998 247.5586 464.88086 250.92947 464.88086 255.11719 L 464.88086 296.69336 C 464.88086 300.88108 461.50998 304.25196 457.32227 304.25195 L 438.42578 304.25195 C 434.23806 304.25195 430.86719 300.88108 430.86719 296.69336 L 430.86719 255.11719 C 430.86719 250.92947 434.23806 247.55859 438.42578 247.55859 z "
       transform="scale(0.26458333)" />
  </g>
</svg>
