<?xml version="1.0" encoding="UTF-8" standalone="no"?>
<svg
   xmlns:dc="http://purl.org/dc/elements/1.1/"
   xmlns:cc="http://creativecommons.org/ns#"
   xmlns:rdf="http://www.w3.org/1999/02/22-rdf-syntax-ns#"
   xmlns:svg="http://www.w3.org/2000/svg"
   xmlns="http://www.w3.org/2000/svg"
   xmlns:sodipodi="http://sodipodi.sourceforge.net/DTD/sodipodi-0.dtd"
   xmlns:inkscape="http://www.inkscape.org/namespaces/inkscape"
   width="150mm"
   height="110mm"
   viewBox="0 0 150 110"
   version="1.1"
   id="svg8"
   inkscape:version="1.0.2 (e86c870879, 2021-01-15)"
   sodipodi:docname="back loops.svg">
  <defs
     id="defs2" />
  <sodipodi:namedview
     id="base"
     pagecolor="#ffffff"
     bordercolor="#666666"
     borderopacity="1.0"
     inkscape:pageopacity="0.0"
     inkscape:pageshadow="2"
     inkscape:zoom="1.6361755"
     inkscape:cx="281.40778"
     inkscape:cy="220.55456"
     inkscape:document-units="mm"
     inkscape:current-layer="layer1"
     inkscape:document-rotation="0"
     showgrid="false"
     inkscape:showpageshadow="true"
     inkscape:snap-bbox="true"
     inkscape:bbox-nodes="true"
     inkscape:snap-page="true">
    <inkscape:grid
       type="xygrid"
       id="grid833"
       units="mm"
       spacingx="0.25"
       spacingy="0.25"
       empspacing="4" />
  </sodipodi:namedview>
  <metadata
     id="metadata5">
    <rdf:RDF>
      <cc:Work
         rdf:about="">
        <dc:format>image/svg+xml</dc:format>
        <dc:type
           rdf:resource="http://purl.org/dc/dcmitype/StillImage" />
        <dc:title></dc:title>
      </cc:Work>
    </rdf:RDF>
  </metadata>
  <g
     inkscape:label="Layer 1"
     inkscape:groupmode="layer"
     id="layer1">
    <path
       id="path984"
       style="color:#000000;font-style:normal;font-variant:normal;font-weight:normal;font-stretch:normal;font-size:medium;line-height:normal;font-family:sans-serif;font-variant-ligatures:normal;font-variant-position:normal;font-variant-caps:normal;font-variant-numeric:normal;font-variant-alternates:normal;font-variant-east-asian:normal;font-feature-settings:normal;font-variation-settings:normal;text-indent:0;text-align:start;text-decoration:none;text-decoration-line:none;text-decoration-style:solid;text-decoration-color:#000000;letter-spacing:normal;word-spacing:normal;text-transform:none;writing-mode:lr-tb;direction:ltr;text-orientation:mixed;dominant-baseline:auto;baseline-shift:baseline;text-anchor:start;white-space:normal;shape-padding:0;shape-margin:0;inline-size:0;clip-rule:nonzero;display:inline;overflow:visible;visibility:visible;isolation:auto;mix-blend-mode:normal;color-interpolation:sRGB;color-interpolation-filters:linearRGB;solid-color:#000000;solid-opacity:1;vector-effect:none;fill:#37c8ab;fill-opacity:1;fill-rule:nonzero;stroke:none;stroke-width:1;stroke-linecap:round;stroke-linejoin:round;stroke-miterlimit:4;stroke-dasharray:none;stroke-dashoffset:0;stroke-opacity:1;color-rendering:auto;image-rendering:auto;shape-rendering:auto;text-rendering:auto;enable-background:accumulate;stop-color:#000000"
       d="m 40.000142,9.9999673 c -1,0 -0.99994,-0.999939 -0.99994,-0.999939 V 2.999878 C 39.000202,2.999878 38.999938,1 36.99981,1 H 31.499887 C 30.499886,1 29.500068,1.500167 28.50007,2.500167 l -6.499862,6.4998613 c -0.5,0.5000001 -1.250395,0.999939 -2.000395,0.999939 L 20,12.000061 l 7.999841,-2.16e-4 c 2.000001,-5.4e-5 2.000395,-1.9998777 2.000395,-1.9998777 V 7.0001504 c 0,-1.6620004 1.337816,-3.0003334 2.999817,-3.0003334 1.661999,0 2.999817,1.338333 2.999817,3.0003334 v 2.9998169 c 0,0 -1.25e-4,1.9998777 1.999877,1.9998777 l 2.000252,2.16e-4 z m 89.999668,0 c -0.75,0 -1.49988,-0.4999389 -1.99988,-0.999939 L 121.50007,2.500167 C 120.50007,1.500167 119.49974,1 118.49974,1 h -5.49992 c -2,0 -1.99988,1.999878 -1.99988,1.999878 v 6.0001503 c 0,0 6e-5,0.999939 -0.99994,0.999939 v 2.0000937 l 1.99988,-2.16e-4 c 2,-2.15e-4 1.99987,-1.9998777 1.99987,-1.9998777 V 7.0001504 c 0,-1.6620004 1.33834,-3.0003334 3.00034,-3.0003334 1.662,0 2.99982,1.338333 2.99982,3.0003334 v 2.9998169 c 0,0 -1.3e-4,1.9998237 1.99987,1.9998777 L 130,12.000061 Z"
       sodipodi:nodetypes="cccsscsccscssscscccssssccccscssscscc" />
  </g>
</svg>
