<?xml version="1.0" encoding="UTF-8" standalone="no"?>
<svg
   xmlns:dc="http://purl.org/dc/elements/1.1/"
   xmlns:cc="http://creativecommons.org/ns#"
   xmlns:rdf="http://www.w3.org/1999/02/22-rdf-syntax-ns#"
   xmlns:svg="http://www.w3.org/2000/svg"
   xmlns="http://www.w3.org/2000/svg"
   xmlns:sodipodi="http://sodipodi.sourceforge.net/DTD/sodipodi-0.dtd"
   xmlns:inkscape="http://www.inkscape.org/namespaces/inkscape"
   width="150mm"
   height="110mm"
   viewBox="0 0 150 110"
   version="1.1"
   id="svg8"
   inkscape:version="1.0.2 (e86c870879, 2021-01-15)"
   sodipodi:docname="back borders.svg">
  <defs
     id="defs2" />
  <sodipodi:namedview
     id="base"
     pagecolor="#ffffff"
     bordercolor="#666666"
     borderopacity="1.0"
     inkscape:pageopacity="0.0"
     inkscape:pageshadow="2"
     inkscape:zoom="2.3139016"
     inkscape:cx="281.40778"
     inkscape:cy="237.84138"
     inkscape:document-units="mm"
     inkscape:current-layer="layer1"
     inkscape:document-rotation="0"
     showgrid="false"
     inkscape:showpageshadow="true"
     inkscape:snap-bbox="true"
     inkscape:bbox-nodes="true"
     inkscape:snap-page="true">
    <inkscape:grid
       type="xygrid"
       id="grid833"
       units="mm"
       spacingx="0.25"
       spacingy="0.25"
       empspacing="4" />
  </sodipodi:namedview>
  <metadata
     id="metadata5">
    <rdf:RDF>
      <cc:Work
         rdf:about="">
        <dc:format>image/svg+xml</dc:format>
        <dc:type
           rdf:resource="http://purl.org/dc/dcmitype/StillImage" />
        <dc:title />
      </cc:Work>
    </rdf:RDF>
  </metadata>
  <g
     inkscape:label="Layer 1"
     inkscape:groupmode="layer"
     id="layer1">
    <path
       id="path933"
       style="color:#000000;font-style:normal;font-variant:normal;font-weight:normal;font-stretch:normal;font-size:medium;line-height:normal;font-family:sans-serif;font-variant-ligatures:normal;font-variant-position:normal;font-variant-caps:normal;font-variant-numeric:normal;font-variant-alternates:normal;font-variant-east-asian:normal;font-feature-settings:normal;font-variation-settings:normal;text-indent:0;text-align:start;text-decoration:none;text-decoration-line:none;text-decoration-style:solid;text-decoration-color:#000000;letter-spacing:normal;word-spacing:normal;text-transform:none;writing-mode:lr-tb;direction:ltr;text-orientation:mixed;dominant-baseline:auto;baseline-shift:baseline;text-anchor:start;white-space:normal;shape-padding:0;shape-margin:0;inline-size:0;clip-rule:nonzero;display:inline;overflow:visible;visibility:visible;isolation:auto;mix-blend-mode:normal;color-interpolation:sRGB;color-interpolation-filters:linearRGB;solid-color:#000000;solid-opacity:1;vector-effect:none;fill:#8dd35f;fill-opacity:1;fill-rule:nonzero;stroke:none;stroke-width:3.77953;stroke-linecap:round;stroke-linejoin:round;stroke-miterlimit:4;stroke-dasharray:none;stroke-dashoffset:0;stroke-opacity:1;color-rendering:auto;image-rendering:auto;shape-rendering:auto;text-rendering:auto;enable-background:accumulate;stop-color:#000000"
       d="M 356.2207 30.236328 C 352.44118 30.236328 352.44141 34.015625 352.44141 34.015625 L 352.44141 113.38672 C 352.44141 113.38672 352.44164 117.16602 348.66211 117.16602 L 291.02344 117.16602 C 288.32675 117.16667 285.35462 115.27648 283.46484 113.38672 L 264.56641 94.488281 C 262.67663 92.598517 260.78711 89.764333 260.78711 86.929688 L 260.78711 45.353516 C 260.78711 45.353516 260.78757 37.794922 253.22852 37.794922 L 143.62109 37.794922 C 143.62109 37.794922 139.8418 37.794691 139.8418 41.574219 C 139.8418 45.353746 143.62109 45.353516 143.62109 45.353516 L 253.22852 45.353516 L 253.22852 86.929688 C 253.22852 93.123914 256.44205 97.05144 259.22266 99.832031 L 278.11914 118.73047 C 281.0292 121.64053 284.79273 124.72612 291.02344 124.72461 L 348.66211 124.72461 C 353.07156 124.72461 357.35656 121.40407 358.73047 118.65625 C 360.10438 115.90843 360 113.38672 360 113.38672 L 360 45.353516 L 423.30664 45.353516 C 423.30664 45.353516 427.08594 45.353746 427.08594 41.574219 C 427.08594 37.794691 423.30664 37.794922 423.30664 37.794922 L 385.51172 37.794922 C 382.67704 37.794895 379.84289 35.905389 377.95312 34.015625 C 376.06335 32.125861 373.22918 30.236328 370.39453 30.236328 L 356.2207 30.236328 z M 37.794922 37.794922 C 16.856339 37.794812 0 54.651261 0 75.589844 L 0 79.369141 C 0 82.203783 1.8895331 85.039924 3.7792969 86.929688 L 11.337891 94.488281 C 13.227654 96.378045 15.117188 99.212226 15.117188 102.04688 L 15.117188 351.49609 C 15.117188 354.33074 13.227654 357.16492 11.337891 359.05469 L 3.7792969 366.61328 C 1.8895331 368.50305 -5.9211895e-16 371.33918 0 374.17383 L 0 377.95312 C 0 398.89171 16.856339 415.74805 37.794922 415.74805 L 41.574219 415.74805 C 44.408864 415.74805 47.245002 413.85851 49.134766 411.96875 L 56.693359 404.41016 C 58.583123 402.52039 61.417307 400.63086 64.251953 400.63086 L 109.60547 400.63086 C 117.16452 400.63086 117.16602 393.07031 117.16602 393.07031 L 117.16602 347.7168 C 117.16602 344.88215 119.05555 342.04796 120.94531 340.1582 L 128.50391 332.59766 C 130.39367 330.70789 133.22785 328.81836 136.0625 328.81836 L 428.97656 328.81836 C 436.53562 328.81836 436.53516 336.37891 436.53516 336.37891 L 436.53516 408.18945 C 436.53516 408.18945 436.53469 415.74805 444.09375 415.74805 L 529.13477 415.74805 C 550.07331 415.74805 566.92969 398.89171 566.92969 377.95312 L 566.92969 374.17383 C 566.92969 371.33918 565.04015 368.50305 563.15039 366.61328 L 555.58984 359.05469 C 553.70008 357.16492 551.81055 354.33074 551.81055 351.49609 L 551.81055 102.04688 C 551.81055 99.212226 553.70008 96.378045 555.58984 94.488281 L 563.15039 86.929688 C 565.04015 85.039924 566.92969 82.203783 566.92969 79.369141 L 566.92969 75.589844 C 566.92969 54.651261 550.07331 37.794922 529.13477 37.794922 L 461.10156 37.794922 C 461.10156 37.794922 457.32227 37.794691 457.32227 41.574219 C 457.32227 45.353746 461.10156 45.353516 461.10156 45.353516 L 517.79492 45.353516 L 517.79492 79.369141 C 517.79492 86.928196 525.35547 86.929687 525.35547 86.929688 L 552.46094 86.929688 L 550.24609 89.144531 C 547.4655 91.925137 544.25195 95.852645 544.25195 102.04688 L 544.25195 351.49609 C 544.25195 357.69032 547.4655 361.61978 550.24609 364.40039 L 552.45898 366.61328 L 525.35547 366.61328 C 517.79641 366.61329 517.79492 374.17383 517.79492 374.17383 L 517.79492 408.18945 L 444.09375 408.18945 L 444.09375 336.37891 C 444.09375 336.37891 444.19805 332.9095 442.35156 329.2168 C 440.50523 325.52409 435.27579 321.25977 428.97656 321.25977 L 136.0625 321.25977 C 129.86826 321.25977 125.94075 324.4733 123.16016 327.25391 L 115.59961 334.8125 C 112.81899 337.59311 109.60547 341.52257 109.60547 347.7168 L 109.60547 393.07031 L 64.251953 393.07031 C 58.057727 393.07031 54.128262 396.28385 51.347656 399.06445 L 49.134766 401.27734 L 49.134766 374.17383 C 49.134766 366.61477 41.576172 366.61328 41.576172 366.61328 L 14.470703 366.61328 L 16.683594 364.40039 C 19.4642 361.61978 22.677734 357.69032 22.677734 351.49609 L 22.677734 102.04688 C 22.677734 95.852645 19.4642 91.925137 16.683594 89.144531 L 14.46875 86.929688 L 41.576172 86.929688 C 49.135227 86.92968 49.134766 79.369141 49.134766 79.369141 L 49.134766 45.353516 L 105.82617 45.353516 C 105.82617 45.353516 109.60547 45.353746 109.60547 41.574219 C 109.60547 37.794691 105.82617 37.794922 105.82617 37.794922 L 37.794922 37.794922 z M 37.794922 45.353516 L 41.576172 45.353516 L 41.576172 79.369141 L 7.5585938 79.369141 L 7.5585938 75.589844 C 7.5585938 58.708229 20.913307 45.353516 37.794922 45.353516 z M 525.35547 45.353516 L 529.13477 45.353516 C 546.01637 45.353429 559.36914 58.708229 559.36914 75.589844 L 559.36914 79.369141 L 525.35547 79.369141 L 525.35547 45.353516 z M 7.5585938 374.17383 L 41.576172 374.17383 L 41.576172 408.1875 C 41.576166 408.1875 41.574219 408.18945 41.574219 408.18945 L 37.794922 408.18945 C 20.913307 408.18945 7.5585938 394.83469 7.5585938 377.95312 L 7.5585938 374.17383 z M 525.35547 374.17383 L 559.36914 374.17383 L 559.36914 377.95312 C 559.36914 394.83469 546.01637 408.18945 529.13477 408.18945 L 525.35547 408.18945 L 525.35547 374.17383 z "
       transform="scale(0.26458333)" />
  </g>
</svg>
