<?xml version="1.0" encoding="UTF-8" standalone="no"?>
<svg
   xmlns:dc="http://purl.org/dc/elements/1.1/"
   xmlns:cc="http://creativecommons.org/ns#"
   xmlns:rdf="http://www.w3.org/1999/02/22-rdf-syntax-ns#"
   xmlns:svg="http://www.w3.org/2000/svg"
   xmlns="http://www.w3.org/2000/svg"
   xmlns:sodipodi="http://sodipodi.sourceforge.net/DTD/sodipodi-0.dtd"
   xmlns:inkscape="http://www.inkscape.org/namespaces/inkscape"
   width="150mm"
   height="110mm"
   viewBox="0 0 150 110"
   version="1.1"
   id="svg8"
   inkscape:version="1.0.2 (e86c870879, 2021-01-15)"
   sodipodi:docname="back lower borders.svg">
  <defs
     id="defs2" />
  <sodipodi:namedview
     id="base"
     pagecolor="#ffffff"
     bordercolor="#666666"
     borderopacity="1.0"
     inkscape:pageopacity="0.0"
     inkscape:pageshadow="2"
     inkscape:zoom="2.3139015"
     inkscape:cx="283.46457"
     inkscape:cy="207.87402"
     inkscape:document-units="mm"
     inkscape:current-layer="layer1"
     inkscape:document-rotation="0"
     showgrid="false"
     inkscape:showpageshadow="true"
     inkscape:snap-bbox="true"
     inkscape:bbox-nodes="true"
     inkscape:snap-page="true">
    <inkscape:grid
       type="xygrid"
       id="grid833"
       units="mm"
       spacingx="0.25"
       spacingy="0.25"
       empspacing="4" />
  </sodipodi:namedview>
  <metadata
     id="metadata5">
    <rdf:RDF>
      <cc:Work
         rdf:about="">
        <dc:format>image/svg+xml</dc:format>
        <dc:type
           rdf:resource="http://purl.org/dc/dcmitype/StillImage" />
        <dc:title></dc:title>
      </cc:Work>
    </rdf:RDF>
  </metadata>
  <g
     inkscape:label="Layer 1"
     inkscape:groupmode="layer"
     id="layer1">
    <path
       id="path4293"
       style="display:inline;opacity:1;fill:#bc5fd3;fill-rule:evenodd;stroke:none;stroke-width:0.264583px;stroke-linecap:butt;stroke-linejoin:miter;stroke-opacity:1;fill-opacity:0.99684733"
       d="m 98.000222,8.000089 c 0.75,0 1.49987,0.499939 1.999878,0.999939 0.5,0.5 1.24988,0.999939 1.99987,0.999939 h 10.00043 c 0,0 0.99994,-6.1e-5 0.99994,0.999939 0,1 -0.99994,0.999939 -0.99994,0.999939 H 95.250002 v 6.000151 c 0,0 6e-5,0.999939 -0.99994,0.999939 -1,0 -0.99994,-0.999939 -0.99994,-0.999939 V 9.000028 c 0,0 -6e-5,-0.999939 0.99994,-0.999939 z"
       sodipodi:nodetypes="ssccscccsccss" />
    <path
       id="path4295"
       style="color:#000000;font-style:normal;font-variant:normal;font-weight:normal;font-stretch:normal;font-size:medium;line-height:normal;font-family:sans-serif;font-variant-ligatures:normal;font-variant-position:normal;font-variant-caps:normal;font-variant-numeric:normal;font-variant-alternates:normal;font-variant-east-asian:normal;font-feature-settings:normal;font-variation-settings:normal;text-indent:0;text-align:start;text-decoration:none;text-decoration-line:none;text-decoration-style:solid;text-decoration-color:#000000;letter-spacing:normal;word-spacing:normal;text-transform:none;writing-mode:lr-tb;direction:ltr;text-orientation:mixed;dominant-baseline:auto;baseline-shift:baseline;text-anchor:start;white-space:normal;shape-padding:0;shape-margin:0;inline-size:0;clip-rule:nonzero;display:inline;overflow:visible;visibility:visible;opacity:1;isolation:auto;mix-blend-mode:normal;color-interpolation:sRGB;color-interpolation-filters:linearRGB;solid-color:#000000;solid-opacity:1;vector-effect:none;fill:#bc5fd3;fill-opacity:0.99684733;fill-rule:nonzero;stroke:none;stroke-width:1;stroke-linecap:round;stroke-linejoin:round;stroke-miterlimit:4;stroke-dasharray:none;stroke-dashoffset:0;stroke-opacity:1;color-rendering:auto;image-rendering:auto;shape-rendering:auto;text-rendering:auto;enable-background:accumulate;stop-color:#000000"
       d="m 148.00015,21.000061 1.2e-4,-1.000187 c 0,-4.466594 -3.53344,-8.000029 -8.00003,-8.000029 l -1.00009,2.16e-4 v 9 z m -9,2 c 0,0 -2,0 -2,-2 v -9 c 0,0 0,-2 2,-1.999878 l 1.00009,-2.16e-4 c 5.54,-1.73e-4 9.99991,4.459907 9.99991,9.999907 l -1.3e-4,1.000187 c 1.3e-4,2 -1.99987,2 -1.99987,2 z"
       sodipodi:nodetypes="ccccccccccccccc" />
    <path
       id="path4301"
       style="color:#000000;font-style:normal;font-variant:normal;font-weight:normal;font-stretch:normal;font-size:medium;line-height:normal;font-family:sans-serif;font-variant-ligatures:normal;font-variant-position:normal;font-variant-caps:normal;font-variant-numeric:normal;font-variant-alternates:normal;font-variant-east-asian:normal;font-feature-settings:normal;font-variation-settings:normal;text-indent:0;text-align:start;text-decoration:none;text-decoration-line:none;text-decoration-style:solid;text-decoration-color:#000000;letter-spacing:normal;word-spacing:normal;text-transform:none;writing-mode:lr-tb;direction:ltr;text-orientation:mixed;dominant-baseline:auto;baseline-shift:baseline;text-anchor:start;white-space:normal;shape-padding:0;shape-margin:0;inline-size:0;clip-rule:nonzero;display:inline;overflow:visible;visibility:visible;opacity:1;isolation:auto;mix-blend-mode:normal;color-interpolation:sRGB;color-interpolation-filters:linearRGB;solid-color:#000000;solid-opacity:1;vector-effect:none;fill:#bc5fd3;fill-opacity:0.99684733;fill-rule:nonzero;stroke:none;stroke-width:1;stroke-linecap:round;stroke-linejoin:round;stroke-miterlimit:4;stroke-dasharray:none;stroke-dashoffset:0;stroke-opacity:1;color-rendering:auto;image-rendering:auto;shape-rendering:auto;text-rendering:auto;enable-background:accumulate;stop-color:#000000"
       d="m 139.00015,108.00006 1.00009,1.2e-4 c 4.46659,0 8.00003,-3.53343 8.00003,-8.00002 l -1.2e-4,-1.0001 h -9 z m 0,-10.999998 h 9 c 0,0 2,0 2,2.000157 v 0.999941 c 0,5.54 -4.45991,9.9999 -9.99991,9.9999 l -1.00009,-1.2e-4 c -2,1.2e-4 -2,-1.99988 -2,-1.99988 v -9 c 0,0 0,-1.999998 2,-1.999998 z"
       sodipodi:nodetypes="ccccccccccccccc" />
    <path
       id="path4306"
       style="color:#000000;font-style:normal;font-variant:normal;font-weight:normal;font-stretch:normal;font-size:medium;line-height:normal;font-family:sans-serif;font-variant-ligatures:normal;font-variant-position:normal;font-variant-caps:normal;font-variant-numeric:normal;font-variant-alternates:normal;font-variant-east-asian:normal;font-feature-settings:normal;font-variation-settings:normal;text-indent:0;text-align:start;text-decoration:none;text-decoration-line:none;text-decoration-style:solid;text-decoration-color:#000000;letter-spacing:normal;word-spacing:normal;text-transform:none;writing-mode:lr-tb;direction:ltr;text-orientation:mixed;dominant-baseline:auto;baseline-shift:baseline;text-anchor:start;white-space:normal;shape-padding:0;shape-margin:0;inline-size:0;clip-rule:nonzero;display:inline;overflow:visible;visibility:visible;opacity:1;isolation:auto;mix-blend-mode:normal;color-interpolation:sRGB;color-interpolation-filters:linearRGB;solid-color:#000000;solid-opacity:1;vector-effect:none;fill:#bc5fd3;fill-opacity:0.99684733;fill-rule:nonzero;stroke:none;stroke-width:1;stroke-linecap:round;stroke-linejoin:round;stroke-miterlimit:4;stroke-dasharray:none;stroke-dashoffset:0;stroke-opacity:1;color-rendering:auto;image-rendering:auto;shape-rendering:auto;text-rendering:auto;enable-background:accumulate;stop-color:#000000"
       d="m 2.000144,23.000061 c 0,0 -1.999998,0 -2.000144,-2.000248 v -0.999939 c 0,-5.54 4.459907,-9.999907 9.999906,-9.999907 l 1.000239,9.4e-5 c 2.000001,0 2.000001,2 2.000001,2 v 8.999998 c 0,0 0,2.000002 -1.999999,2.000002 z m 9.000001,-2.000002 v -9.00012 l -1.000239,-9.4e-5 c -4.46659,0 -7.999511,3.533435 -7.999511,8.000029 v 0.999939 z"
       sodipodi:nodetypes="ccccccccccccccc" />
    <path
       id="path4311"
       style="color:#000000;font-style:normal;font-variant:normal;font-weight:normal;font-stretch:normal;font-size:medium;line-height:normal;font-family:sans-serif;font-variant-ligatures:normal;font-variant-position:normal;font-variant-caps:normal;font-variant-numeric:normal;font-variant-alternates:normal;font-variant-east-asian:normal;font-feature-settings:normal;font-variation-settings:normal;text-indent:0;text-align:start;text-decoration:none;text-decoration-line:none;text-decoration-style:solid;text-decoration-color:#000000;letter-spacing:normal;word-spacing:normal;text-transform:none;writing-mode:lr-tb;direction:ltr;text-orientation:mixed;dominant-baseline:auto;baseline-shift:baseline;text-anchor:start;white-space:normal;shape-padding:0;shape-margin:0;inline-size:0;clip-rule:nonzero;display:inline;overflow:visible;visibility:visible;opacity:1;isolation:auto;mix-blend-mode:normal;color-interpolation:sRGB;color-interpolation-filters:linearRGB;solid-color:#000000;solid-opacity:1;vector-effect:none;fill:#bc5fd3;fill-opacity:0.99684733;fill-rule:nonzero;stroke:none;stroke-width:1;stroke-linecap:round;stroke-linejoin:round;stroke-miterlimit:4;stroke-dasharray:none;stroke-dashoffset:0;stroke-opacity:1;color-rendering:auto;image-rendering:auto;shape-rendering:auto;text-rendering:auto;enable-background:accumulate;stop-color:#000000"
       d="m 11.000147,99.00006 -8.999752,1.59e-4 v 0.999941 c 0,4.46659 3.532921,8.00002 7.999511,8.00002 l 1.000241,-1.2e-4 z m 1.999999,0 v 9 c 0,0 0,2 -1.999784,2 H 9.999906 C 4.459907,110.00006 0,105.54016 0,100.00016 v -0.999941 c 1.46e-4,-2.000157 2.000144,-2.000157 2.000144,-2.000157 h 9.000003 c 1.999999,0 1.999999,1.999998 1.999999,1.999998 z"
       sodipodi:nodetypes="ccccccccccccccc" />
  </g>
</svg>
