<?xml version="1.0" encoding="UTF-8" standalone="no"?>
<svg
   width="27mm"
   height="21mm"
   viewBox="0 0 27 21"
   version="1.1"
   id="svg2517"
   sodipodi:docname="buttons trigger upper.svg"
   inkscape:version="1.2 (dc2aedaf03, 2022-05-15)"
   xmlns:inkscape="http://www.inkscape.org/namespaces/inkscape"
   xmlns:sodipodi="http://sodipodi.sourceforge.net/DTD/sodipodi-0.dtd"
   xmlns="http://www.w3.org/2000/svg"
   xmlns:svg="http://www.w3.org/2000/svg"
   xmlns:rdf="http://www.w3.org/1999/02/22-rdf-syntax-ns#"
   xmlns:cc="http://creativecommons.org/ns#"
   xmlns:dc="http://purl.org/dc/elements/1.1/">
  <defs
     id="defs2511" />
  <sodipodi:namedview
     id="base"
     pagecolor="#ffffff"
     bordercolor="#666666"
     borderopacity="1.0"
     inkscape:pageopacity="0.0"
     inkscape:pageshadow="2"
     inkscape:zoom="1.6818463"
     inkscape:cx="224.15842"
     inkscape:cy="108.5117"
     inkscape:document-units="mm"
     inkscape:current-layer="layer1"
     inkscape:document-rotation="0"
     showgrid="true"
     fit-margin-top="0"
     fit-margin-left="0"
     fit-margin-right="0"
     fit-margin-bottom="0"
     inkscape:showpageshadow="2"
     inkscape:pagecheckerboard="0"
     inkscape:deskcolor="#d1d1d1"
     inkscape:window-width="1438"
     inkscape:window-height="880"
     inkscape:window-x="0"
     inkscape:window-y="16"
     inkscape:window-maximized="1" />
  <metadata
     id="metadata2514">
    <rdf:RDF>
      <cc:Work
         rdf:about="">
        <dc:format>image/svg+xml</dc:format>
        <dc:type
           rdf:resource="http://purl.org/dc/dcmitype/StillImage" />
        <dc:title />
      </cc:Work>
    </rdf:RDF>
  </metadata>
  <g
     inkscape:label="Layer 1"
     inkscape:groupmode="layer"
     id="layer1">
    <path
       id="path976-3"
       style="color:#000000;opacity:1;fill:#800080;stroke-linecap:round;stroke-linejoin:round;-inkscape-stroke:none"
       d="m 6.7489419,3.4e-5 c -0.020501,0 -0.040677,2.19e-4 -0.060978,0.001 -1.8873995,0.03364 -3.4380331,1.604939 -3.4380331,3.499528 v 7.334953 C 2.7017241,10.617779 2.1091599,10.500652 1.4996501,10.500652 0.67149631,10.500845 1.9320939e-4,11.172148 0,12.000302 c -9.1690608e-5,0.828355 0.67129481,1.499973 1.4996501,1.500166 0.6695644,0 1.272239,0.374105 1.5683797,0.974618 0.2961408,0.600514 0.2262207,1.308479 -0.1813843,1.839681 -0.5046842,0.657357 -0.3806489,1.599424 0.2769857,2.103747 0.6574927,0.50457 1.5995814,0.3803 2.1037475,-0.277502 0.6476495,-0.844033 0.9803161,-1.864482 0.9808187,-2.891813 l 0.00155,-11.748637 c 0,-0.293909 0.2063191,-0.500228 0.5002279,-0.500228 l 10.3781787,-5.17e-4 1.0604,1.060401 c 0.585794,0.585552 1.535523,0.585552 2.121318,0 l 1.0604,-1.060401 h 1.378727 v 1.999878 c 0.828426,0 1.500167,-0.671224 1.500167,-1.49965 V 1.499651 C 24.249083,0.671258 23.577391,8.3e-5 22.748999,0 H 20.248893 L 19.248954,0.999939 18.249015,0 Z"
       sodipodi:nodetypes="scsccccsccccccccccccscccccs" />
  </g>
</svg>
