<?xml version="1.0" encoding="UTF-8" standalone="no"?>
<svg
   xmlns:dc="http://purl.org/dc/elements/1.1/"
   xmlns:cc="http://creativecommons.org/ns#"
   xmlns:rdf="http://www.w3.org/1999/02/22-rdf-syntax-ns#"
   xmlns:svg="http://www.w3.org/2000/svg"
   xmlns="http://www.w3.org/2000/svg"
   xmlns:sodipodi="http://sodipodi.sourceforge.net/DTD/sodipodi-0.dtd"
   xmlns:inkscape="http://www.inkscape.org/namespaces/inkscape"
   width="27mm"
   height="21mm"
   viewBox="0 0 27 21"
   version="1.1"
   id="svg2517"
   sodipodi:docname="buttons trigger lower.svg"
   inkscape:version="1.0.2 (e86c870879, 2021-01-15)">
  <defs
     id="defs2511" />
  <sodipodi:namedview
     id="base"
     pagecolor="#ffffff"
     bordercolor="#666666"
     borderopacity="1.0"
     inkscape:pageopacity="0.0"
     inkscape:pageshadow="2"
     inkscape:zoom="6.0602183"
     inkscape:cx="65.925992"
     inkscape:cy="56.511419"
     inkscape:document-units="mm"
     inkscape:current-layer="layer1"
     inkscape:document-rotation="0"
     showgrid="true"
     fit-margin-top="0"
     fit-margin-left="0"
     fit-margin-right="0"
     fit-margin-bottom="0" />
  <metadata
     id="metadata2514">
    <rdf:RDF>
      <cc:Work
         rdf:about="">
        <dc:format>image/svg+xml</dc:format>
        <dc:type
           rdf:resource="http://purl.org/dc/dcmitype/StillImage" />
        <dc:title />
      </cc:Work>
    </rdf:RDF>
  </metadata>
  <g
     inkscape:label="Layer 1"
     inkscape:groupmode="layer"
     id="layer1">
    <path
       id="path1131"
       style="opacity:1;fill:#c836ab;fill-opacity:0.996078;fill-rule:evenodd;stroke:none;stroke-width:0.999999px;stroke-linecap:butt;stroke-linejoin:miter;stroke-opacity:1"
       d="M 26.457031 0 C 19.128524 1.1842379e-15 13.228516 5.9000121 13.228516 13.228516 L 13.228516 40.347656 C 10.907379 39.321126 8.3537039 38.740234 5.6699219 38.740234 A 5.6692913 5.6692913 0 0 0 0 44.410156 A 5.6692913 5.6692913 0 0 0 5.6699219 50.078125 C 9.9118236 50.078125 13.228516 53.396772 13.228516 57.638672 C 13.228516 61.880572 9.9118236 65.197266 5.6699219 65.197266 A 5.6692913 5.6692913 0 0 0 0 70.865234 A 5.6692913 5.6692913 0 0 0 5.6699219 76.535156 L 21.732422 76.535156 C 23.622186 76.535156 25.512149 74.645623 26.457031 72.755859 L 34.960938 55.748047 C 35.905819 53.858283 34.960076 51.96875 33.070312 51.96875 L 24.566406 51.96875 L 24.566406 18.898438 L 94.488281 18.898438 C 97.629069 18.898437 100.1582 16.369303 100.1582 13.228516 L 100.1582 5.6699219 C 100.1582 2.5291345 97.629069 -5.9211895e-16 94.488281 0 L 77.480469 0 L 73.701172 3.7792969 L 69.921875 0 L 26.457031 0 z "
       transform="scale(0.26458333)" />
  </g>
</svg>
