<?xml version="1.0" encoding="UTF-8" standalone="no"?>
<svg
   width="27mm"
   height="21mm"
   viewBox="0 0 27 21"
   version="1.1"
   id="svg2517"
   sodipodi:docname="buttons trigger lower.svg"
   inkscape:version="1.2 (dc2aedaf03, 2022-05-15)"
   xmlns:inkscape="http://www.inkscape.org/namespaces/inkscape"
   xmlns:sodipodi="http://sodipodi.sourceforge.net/DTD/sodipodi-0.dtd"
   xmlns="http://www.w3.org/2000/svg"
   xmlns:svg="http://www.w3.org/2000/svg"
   xmlns:rdf="http://www.w3.org/1999/02/22-rdf-syntax-ns#"
   xmlns:cc="http://creativecommons.org/ns#"
   xmlns:dc="http://purl.org/dc/elements/1.1/">
  <defs
     id="defs2511" />
  <sodipodi:namedview
     id="base"
     pagecolor="#ffffff"
     bordercolor="#666666"
     borderopacity="1.0"
     inkscape:pageopacity="0.0"
     inkscape:pageshadow="2"
     inkscape:zoom="7.9249008"
     inkscape:cx="50.978556"
     inkscape:cy="39.685039"
     inkscape:document-units="mm"
     inkscape:current-layer="layer1"
     inkscape:document-rotation="0"
     showgrid="true"
     fit-margin-top="0"
     fit-margin-left="0"
     fit-margin-right="0"
     fit-margin-bottom="0"
     inkscape:showpageshadow="2"
     inkscape:pagecheckerboard="0"
     inkscape:deskcolor="#d1d1d1"
     inkscape:window-width="1438"
     inkscape:window-height="880"
     inkscape:window-x="0"
     inkscape:window-y="16"
     inkscape:window-maximized="1" />
  <metadata
     id="metadata2514">
    <rdf:RDF>
      <cc:Work
         rdf:about="">
        <dc:format>image/svg+xml</dc:format>
        <dc:type
           rdf:resource="http://purl.org/dc/dcmitype/StillImage" />
        <dc:title />
      </cc:Work>
    </rdf:RDF>
  </metadata>
  <g
     inkscape:label="Layer 1"
     inkscape:groupmode="layer"
     id="layer1">
    <path
       id="path1564"
       style="display:inline;opacity:1;fill:#c836ab;fill-opacity:0.996078;fill-rule:evenodd;stroke:none;stroke-width:0.264583px;stroke-linecap:butt;stroke-linejoin:miter;stroke-opacity:1"
       d="M 6.7510091,0 C 4.812185,0 3.2512429,1.5607726 3.2509643,3.499528 l -5.167e-4,7.33857 C 2.7076628,10.620092 2.1169654,10.499617 1.5001668,10.499617 0.67181081,10.499525 1.927257e-4,11.170912 0,11.999268 c -9.1698776e-5,0.828557 0.6716097,1.500258 1.5001668,1.500166 0.9842633,0 1.7502808,0.766018 1.7502808,1.750281 0,0.984263 -0.7660175,1.749764 -1.7502808,1.749764 C 0.67160931,16.999387 -9.2251191e-5,17.671089 0,18.499646 c 1.9327785e-4,0.828356 0.6718112,1.499742 1.5001668,1.49965 h 0.00103 l -5.167e-4,5.17e-4 h 4.2503865 c 0.4999995,0 1.0000532,-0.49994 1.2500529,-0.999939 L 9.2511149,14.49989 C 9.5011146,13.999891 9.2508865,13.499951 8.750887,13.499951 H 6.2502644 V 5.0002116 H 22.751066 c 0.830998,0 1.49965,-0.6691685 1.49965,-1.5001668 V 1.5001668 C 24.250716,0.6691685 23.582064,0 22.751066,0 H 20.25096 L 19.251021,0.999939 18.251082,0 Z"
       sodipodi:nodetypes="scccccsccsccssssccsssscccs" />
  </g>
</svg>
