<?xml version="1.0" encoding="UTF-8" standalone="no"?>
<svg
   xmlns:dc="http://purl.org/dc/elements/1.1/"
   xmlns:cc="http://creativecommons.org/ns#"
   xmlns:rdf="http://www.w3.org/1999/02/22-rdf-syntax-ns#"
   xmlns:svg="http://www.w3.org/2000/svg"
   xmlns="http://www.w3.org/2000/svg"
   xmlns:sodipodi="http://sodipodi.sourceforge.net/DTD/sodipodi-0.dtd"
   xmlns:inkscape="http://www.inkscape.org/namespaces/inkscape"
   width="68.000328mm"
   height="24.000088mm"
   viewBox="0 0 68.000328 24.000088"
   version="1.1"
   id="svg2239"
   inkscape:version="1.0.2 (e86c870879, 2021-01-15)"
   sodipodi:docname="buttons base.svg">
  <defs
     id="defs2233" />
  <sodipodi:namedview
     id="base"
     pagecolor="#ffffff"
     bordercolor="#666666"
     borderopacity="1.0"
     inkscape:pageopacity="0.0"
     inkscape:pageshadow="2"
     inkscape:zoom="2.8284271"
     inkscape:cx="92.119063"
     inkscape:cy="125.73981"
     inkscape:document-units="mm"
     inkscape:current-layer="layer1"
     inkscape:document-rotation="0"
     showgrid="false"
     fit-margin-top="0"
     fit-margin-left="0"
     fit-margin-right="0"
     fit-margin-bottom="0" />
  <metadata
     id="metadata2236">
    <rdf:RDF>
      <cc:Work
         rdf:about="">
        <dc:format>image/svg+xml</dc:format>
        <dc:type
           rdf:resource="http://purl.org/dc/dcmitype/StillImage" />
        <dc:title></dc:title>
      </cc:Work>
    </rdf:RDF>
  </metadata>
  <g
     inkscape:label="Layer 1"
     inkscape:groupmode="layer"
     id="layer1">
    <path
       id="rect4892"
       style="fill:#c837ab;fill-opacity:0.995423;stroke:none;stroke-width:2;stroke-linecap:round;stroke-linejoin:round;stroke-miterlimit:4;stroke-dasharray:none"
       d="m 2.51e-4,5 1.5,-1.5 2.5,2.5 2,-2 -2.5,-2.5 1.5,-1.5 h 14 l 1.5,1.5 -2.5,2.5 2,2 2.5,-2.5 1.5,1.5 v 14 l -1.5,1.5 -2.5,-2.5 -2,2 2.5,2.5 -1.5,1.5 h -14 l -1.5,-1.5 2.5,-2.5 -2,-2 -2.5,2.5 -1.5,-1.5 z"
       sodipodi:nodetypes="ccccccccccccccccccccccccc" />
    <path
       style="fill:#c837ab;fill-rule:evenodd;stroke:none;stroke-width:0.264583px;stroke-linecap:butt;stroke-linejoin:miter;stroke-opacity:1"
       d="m 63.000094,2.000131 h -4 l -4.5,4.5 3,3 -2,2 -3,-3 -4.5,4.5 v 4 l 5,5 h 4 l 4.5,-4.5 -3,-3 2,-2 3,3 4.5,-4.5 v -4 z"
       id="path4890"
       sodipodi:nodetypes="ccccccccccccccccc" />
    <path
       style="fill:#c837ab;fill-rule:evenodd;stroke:none;stroke-width:0.264583px;stroke-linecap:butt;stroke-linejoin:miter;stroke-opacity:1"
       d="m 41,2.000037 h -4 l -4.5,4.5 3,3 -2,2 -3,-3 -4.5,4.5 v 4 l 5,5 h 4 l 4.5,-4.5 -3,-3 2,-2 3,3 4.5,-4.5 v -4 z"
       id="path4886"
       sodipodi:nodetypes="ccccccccccccccccc" />
  </g>
</svg>
