<?xml version="1.0" encoding="UTF-8" standalone="no"?>
<svg
   xmlns:dc="http://purl.org/dc/elements/1.1/"
   xmlns:cc="http://creativecommons.org/ns#"
   xmlns:rdf="http://www.w3.org/1999/02/22-rdf-syntax-ns#"
   xmlns:svg="http://www.w3.org/2000/svg"
   xmlns="http://www.w3.org/2000/svg"
   xmlns:sodipodi="http://sodipodi.sourceforge.net/DTD/sodipodi-0.dtd"
   xmlns:inkscape="http://www.inkscape.org/namespaces/inkscape"
   width="27mm"
   height="21mm"
   viewBox="0 0 27 21"
   version="1.1"
   id="svg2517"
   sodipodi:docname="buttons trigger upper.svg"
   inkscape:version="1.0.2 (e86c870879, 2021-01-15)">
  <defs
     id="defs2511">
    <clipPath
       clipPathUnits="userSpaceOnUse"
       id="clipPath119818">
      <path
         id="path119820"
         style="opacity:0.49836;fill:#00ff00;fill-opacity:1;stroke:none;stroke-width:3;stroke-linecap:butt;stroke-linejoin:bevel;stroke-miterlimit:4;stroke-dasharray:none;stroke-opacity:1"
         d="m 15.500005,-5.2500005 11.499996,5e-7 0.999998,0.9999999 1,-0.9999999 6.000007,-5e-7 c 1.938999,-3e-7 3.499998,1.5610001 3.499998,3.4999999 v 2.4999992 c 0,1.939 -1.560999,3.4999999 -3.499998,3.4999999 H 15.500005 c -1.939001,0 -3.500001,-1.5609999 -3.500001,-3.4999999 v -2.4999992 c 0,-1.9389998 1.561,-3.4999999 3.500001,-3.4999999 z"
         sodipodi:nodetypes="scccssssssss" />
    </clipPath>
  </defs>
  <sodipodi:namedview
     id="base"
     pagecolor="#ffffff"
     bordercolor="#666666"
     borderopacity="1.0"
     inkscape:pageopacity="0.0"
     inkscape:pageshadow="2"
     inkscape:zoom="6.0602183"
     inkscape:cx="65.925992"
     inkscape:cy="56.511419"
     inkscape:document-units="mm"
     inkscape:current-layer="layer1"
     inkscape:document-rotation="0"
     showgrid="true"
     fit-margin-top="0"
     fit-margin-left="0"
     fit-margin-right="0"
     fit-margin-bottom="0" />
  <metadata
     id="metadata2514">
    <rdf:RDF>
      <cc:Work
         rdf:about="">
        <dc:format>image/svg+xml</dc:format>
        <dc:type
           rdf:resource="http://purl.org/dc/dcmitype/StillImage" />
        <dc:title></dc:title>
      </cc:Work>
    </rdf:RDF>
  </metadata>
  <g
     inkscape:label="Layer 1"
     inkscape:groupmode="layer"
     id="layer1">
    <path
       id="path976"
       style="color:#000000;font-style:normal;font-variant:normal;font-weight:normal;font-stretch:normal;font-size:medium;line-height:normal;font-family:sans-serif;font-variant-ligatures:normal;font-variant-position:normal;font-variant-caps:normal;font-variant-numeric:normal;font-variant-alternates:normal;font-variant-east-asian:normal;font-feature-settings:normal;font-variation-settings:normal;text-indent:0;text-align:start;text-decoration:none;text-decoration-line:none;text-decoration-style:solid;text-decoration-color:#000000;letter-spacing:normal;word-spacing:normal;text-transform:none;writing-mode:lr-tb;direction:ltr;text-orientation:mixed;dominant-baseline:auto;baseline-shift:baseline;text-anchor:start;white-space:normal;shape-padding:0;shape-margin:0;inline-size:0;clip-rule:nonzero;display:inline;overflow:visible;visibility:visible;opacity:1;isolation:auto;mix-blend-mode:normal;color-interpolation:sRGB;color-interpolation-filters:linearRGB;solid-color:#000000;solid-opacity:1;vector-effect:none;fill:#800080;fill-opacity:1;fill-rule:nonzero;stroke:none;stroke-width:3.77953;stroke-linecap:round;stroke-linejoin:round;stroke-miterlimit:4;stroke-dasharray:none;stroke-dashoffset:0;stroke-opacity:1;color-rendering:auto;image-rendering:auto;shape-rendering:auto;text-rendering:auto;enable-background:accumulate;stop-color:#000000;stop-opacity:1"
       d="M 26.457031 0 C 26.26134 0 26.067538 0.0099419161 25.876953 0.029296875 C 18.902908 0.34085528 13.228516 6.185434 13.228516 13.228516 L 13.228516 40.326172 C 10.88331 39.30014 8.3177676 38.740234 5.6699219 38.740234 A 5.6692913 5.6692913 0 0 0 0 44.410156 A 5.6692913 5.6692913 0 0 0 5.6699219 50.078125 C 8.5603314 50.078125 11.166917 51.70064 12.445312 54.292969 C 13.723708 56.885301 13.423632 59.943213 11.664062 62.236328 A 5.6692913 5.6692913 0 0 0 12.710938 70.1875 A 5.6692913 5.6692913 0 0 0 20.662109 69.138672 C 23.238338 65.781265 24.550674 61.723566 24.552734 57.638672 L 24.566406 57.638672 L 24.566406 13.228516 C 24.566406 12.117677 25.346193 11.337891 26.457031 11.337891 L 65.683594 11.337891 L 69.693359 15.347656 C 71.907388 17.560769 75.494956 17.560769 77.708984 15.347656 L 81.716797 11.337891 L 94.488281 11.337891 L 94.488281 18.898438 C 97.619344 18.898438 100.1582 16.359579 100.1582 13.228516 L 100.1582 5.6699219 C 100.15789 2.5389885 97.619215 0.00031294488 94.488281 0 L 77.480469 0 L 73.701172 3.7792969 L 69.921875 0 L 26.457031 0 z "
       transform="scale(0.26458333)" />
  </g>
</svg>
