<?xml version="1.0" encoding="UTF-8" standalone="no"?>
<svg
   width="68.000328mm"
   height="24.000088mm"
   viewBox="0 0 68.000328 24.000088"
   version="1.1"
   id="svg2239"
   inkscape:version="1.2 (dc2aedaf03, 2022-05-15)"
   sodipodi:docname="buttons action base.svg"
   xmlns:inkscape="http://www.inkscape.org/namespaces/inkscape"
   xmlns:sodipodi="http://sodipodi.sourceforge.net/DTD/sodipodi-0.dtd"
   xmlns="http://www.w3.org/2000/svg"
   xmlns:svg="http://www.w3.org/2000/svg"
   xmlns:rdf="http://www.w3.org/1999/02/22-rdf-syntax-ns#"
   xmlns:cc="http://creativecommons.org/ns#"
   xmlns:dc="http://purl.org/dc/elements/1.1/">
  <defs
     id="defs2233" />
  <sodipodi:namedview
     id="base"
     pagecolor="#ffffff"
     bordercolor="#666666"
     borderopacity="1.0"
     inkscape:pageopacity="0.0"
     inkscape:pageshadow="2"
     inkscape:zoom="2.8284271"
     inkscape:cx="92.277436"
     inkscape:cy="64.523494"
     inkscape:document-units="mm"
     inkscape:current-layer="layer1"
     inkscape:document-rotation="0"
     showgrid="false"
     fit-margin-top="0"
     fit-margin-left="0"
     fit-margin-right="0"
     fit-margin-bottom="0"
     inkscape:showpageshadow="2"
     inkscape:pagecheckerboard="0"
     inkscape:deskcolor="#d1d1d1"
     inkscape:window-width="1438"
     inkscape:window-height="880"
     inkscape:window-x="0"
     inkscape:window-y="16"
     inkscape:window-maximized="1" />
  <metadata
     id="metadata2236">
    <rdf:RDF>
      <cc:Work
         rdf:about="">
        <dc:format>image/svg+xml</dc:format>
        <dc:type
           rdf:resource="http://purl.org/dc/dcmitype/StillImage" />
        <dc:title />
      </cc:Work>
    </rdf:RDF>
  </metadata>
  <g
     inkscape:label="Layer 1"
     inkscape:groupmode="layer"
     id="layer1">
    <path
       id="rect4892-3"
       style="opacity:1;fill:#c837ab;fill-opacity:0.995423;stroke:none;stroke-width:2;stroke-linecap:round;stroke-linejoin:round;stroke-miterlimit:4;stroke-dasharray:none"
       d="m 2.51e-4,5 1.625,-1.625 2.375,2.375 1.75,-1.75 -2.375,-2.375 1.625,-1.625 h 14 l 1.625,1.625 -2.375,2.375 1.75,1.75 2.375,-2.375 1.625,1.625 v 14 l -1.625,1.625 -2.375,-2.375 -1.75,1.75 2.375,2.375 -1.625,1.625 h -14 l -1.625,-1.625 2.375,-2.375 -1.75,-1.75 -2.375,2.375 L 2.51e-4,19 Z"
       sodipodi:nodetypes="ccccccccccccccccccccccccc" />
    <path
       style="fill:#c837ab;fill-rule:evenodd;stroke:none;stroke-width:0.264583px;stroke-linecap:butt;stroke-linejoin:miter;stroke-opacity:1"
       d="m 63.000094,2.000131 h -4 l -4.625,4.625 2.875,2.875 -1.75,1.75 -2.875,-2.875 -4.625,4.625 v 4 l 5,5 h 4 l 4.625,-4.625 -2.875,-2.875 1.75,-1.75 2.875,2.875 4.625,-4.625 v -4 z"
       id="path4890-6"
       sodipodi:nodetypes="ccccccccccccccccc" />
    <path
       style="fill:#c837ab;fill-rule:evenodd;stroke:none;stroke-width:0.264583px;stroke-linecap:butt;stroke-linejoin:miter;stroke-opacity:1"
       d="m 41,2.000037 h -4 l -4.625,4.625 2.875,2.875 -1.75,1.75 -2.875,-2.875 -4.625,4.625 v 4 l 5,5 h 4 l 4.625,-4.625 -2.875,-2.875 1.75,-1.75 2.875,2.875 4.625,-4.625 v -4 z"
       id="path4886-7"
       sodipodi:nodetypes="ccccccccccccccccc" />
  </g>
</svg>
