<?xml version="1.0" encoding="UTF-8" standalone="no"?>
<svg
   width="150mm"
   height="110mm"
   viewBox="0 0 150 110"
   version="1.1"
   id="svg8"
   inkscape:version="1.2 (dc2aedaf03, 2022-05-15)"
   sodipodi:docname="front top.svg"
   xmlns:inkscape="http://www.inkscape.org/namespaces/inkscape"
   xmlns:sodipodi="http://sodipodi.sourceforge.net/DTD/sodipodi-0.dtd"
   xmlns="http://www.w3.org/2000/svg"
   xmlns:svg="http://www.w3.org/2000/svg"
   xmlns:rdf="http://www.w3.org/1999/02/22-rdf-syntax-ns#"
   xmlns:cc="http://creativecommons.org/ns#"
   xmlns:dc="http://purl.org/dc/elements/1.1/">
  <defs
     id="defs2" />
  <sodipodi:namedview
     id="base"
     pagecolor="#ffffff"
     bordercolor="#666666"
     borderopacity="1.0"
     inkscape:pageopacity="0.0"
     inkscape:pageshadow="2"
     inkscape:zoom="1.5129356"
     inkscape:cx="283.5547"
     inkscape:cy="207.87402"
     inkscape:document-units="mm"
     inkscape:current-layer="layer1"
     inkscape:document-rotation="0"
     showgrid="false"
     inkscape:showpageshadow="true"
     inkscape:snap-bbox="false"
     inkscape:bbox-nodes="true"
     showguides="true"
     inkscape:guide-bbox="true"
     inkscape:snap-smooth-nodes="true"
     inkscape:snap-object-midpoints="true"
     inkscape:pagecheckerboard="0"
     inkscape:deskcolor="#d1d1d1"
     inkscape:window-width="1438"
     inkscape:window-height="880"
     inkscape:window-x="0"
     inkscape:window-y="16"
     inkscape:window-maximized="1">
    <inkscape:grid
       type="xygrid"
       id="grid833"
       units="mm"
       spacingx="0.25"
       spacingy="0.25"
       empspacing="4" />
  </sodipodi:namedview>
  <metadata
     id="metadata5">
    <rdf:RDF>
      <cc:Work
         rdf:about="">
        <dc:format>image/svg+xml</dc:format>
        <dc:type
           rdf:resource="http://purl.org/dc/dcmitype/StillImage" />
        <dc:title />
      </cc:Work>
    </rdf:RDF>
  </metadata>
  <g
     inkscape:label="Layer 1"
     inkscape:groupmode="layer"
     id="layer1">
    <path
       id="rect1044-6"
       style="display:inline;opacity:1;fill:#5fbcd3;stroke:none;stroke-width:2.11667;stroke-linecap:round;stroke-linejoin:round"
       d="M 9.9999064 0 C 4.4599128 0 -2.0999905e-05 4.459912 0 9.9999064 L 0 50.000049 C 9.99999e-07 50.750049 0.49993846 51.499922 0.99993896 51.999927 L 1.9998779 52.999866 C 2.4998774 53.49987 2.9998169 54.249746 2.9998169 54.999744 L 2.9998169 66.000106 C 2.9998169 71.250101 5.2500306 75.24977 8.0000285 77.99989 C 8.5000477 78.499865 8.5000341 79.499778 8.0000285 79.999768 L 0.99993896 86.999858 C 0.49993046 87.499852 0 88.250252 0 89.000252 L 0 90.000191 C 0 95.540187 4.4599128 100.00013 9.9999064 100.0001 L 124.00018 100.0001 C 124.75018 100.0001 125.50006 99.500158 126.00006 99.000159 L 127 98.00022 C 127.5 97.50022 128.2504 96.999764 129.00039 96.999764 L 139.0003 96.999764 C 143.4323 96.999664 147.00041 93.432246 147.00033 89.000252 L 147.00033 78.999829 C 147.00032 77.999829 147.50028 77.499972 148.00027 76.999951 L 149.00021 76.000012 C 149.50021 75.500012 150.00015 74.750135 150.00015 74.000134 L 150.00015 9.9999064 C 150.00015 4.459912 145.54023 3.0946787e-17 140.00024 0 L 9.9999064 0 z M 97.249878 2.5001058 L 111.50017 2.5001058 C 111.50017 2.5001058 112.50011 2.5000463 112.50011 3.5000448 C 112.50011 4.5000428 111.50017 4.4999837 111.50017 4.4999837 L 97.249878 4.4999837 C 97.249878 4.4999837 96.249939 4.5000428 96.249939 3.5000448 C 96.249939 2.5000463 97.249878 2.5001058 97.249878 2.5001058 z M 37.249923 6.0001506 L 42.250134 6.0001506 C 43.250132 6.0001506 43.250073 7.0000895 43.250073 7.0000895 L 43.250073 16.000057 C 43.250073 16.000057 43.250014 16.999996 44.250012 16.999996 L 52.999866 16.999996 C 52.999866 16.999996 53.999805 16.999937 53.999805 17.999935 C 53.999805 18.999933 52.999866 18.999874 52.999866 18.999874 L 37.750151 18.999874 C 36.250153 18.999874 36.249984 17.500224 36.249984 17.500224 L 36.249984 7.0000895 C 36.249984 7.0000895 36.249925 6.0001506 37.249923 6.0001506 z M 19.750216 19.249988 A 6 6 0 0 1 25.749849 25.250138 A 6 6 0 0 1 19.750216 31.249772 A 6 6 0 0 1 13.750065 25.250138 A 6 6 0 0 1 19.750216 19.249988 z M 72.000256 19.500102 L 105.50002 19.500102 C 107.50002 19.500102 107.4999 21.49998 107.4999 21.49998 L 107.4999 74.000134 C 107.4999 74.000134 107.50002 76.000012 105.50002 76.000012 L 41.000081 76.000012 C 39.000085 76.000012 39.000203 74.000134 39.000203 74.000134 L 39.000203 25.999963 C 39.000203 25.999963 39.000085 24.000085 41.000081 24.000085 L 65.499878 24.000085 C 66.249876 24.000085 66.999756 23.500146 67.499756 23.000146 L 69.999862 20.500041 C 70.49986 20.000041 71.250258 19.500102 72.000256 19.500102 z M 118.25015 20.500041 A 3 3 0 0 1 121.24996 23.499858 A 3 3 0 0 1 118.25015 26.500191 A 3 3 0 0 1 115.24981 23.499858 A 3 3 0 0 1 118.25015 20.500041 z M 9.7497925 29.249894 A 6 6 0 0 1 15.749943 35.250045 A 6 6 0 0 1 9.7497925 41.250195 A 6 6 0 0 1 3.7501587 35.250045 A 6 6 0 0 1 9.7497925 29.249894 z M 29.750122 29.249894 A 6 6 0 0 1 35.749756 35.250045 A 6 6 0 0 1 29.750122 41.250195 A 6 6 0 0 1 23.749972 35.250045 A 6 6 0 0 1 29.750122 29.249894 z M 19.750216 39.249801 A 6 6 0 0 1 25.749849 45.249951 A 6 6 0 0 1 19.750216 51.250102 A 6 6 0 0 1 13.750065 45.249951 A 6 6 0 0 1 19.750216 39.249801 z M 128.74976 53.24998 L 136.74979 53.24998 C 137.30379 53.24998 137.75025 53.695919 137.75025 54.249919 L 137.75025 61.250008 L 144.74982 61.250008 C 145.30382 61.250008 145.74976 61.695949 145.74976 62.249947 L 145.74976 70.249976 C 145.74976 70.803974 145.30382 71.249915 144.74982 71.249915 L 137.75025 71.249915 L 137.75025 78.250004 C 137.75025 78.804004 137.30379 79.249943 136.74979 79.249943 L 128.74976 79.249943 C 128.19576 79.249943 127.74983 78.804004 127.74983 78.250004 L 127.74983 71.249915 L 120.75025 71.249915 C 120.19625 71.249915 119.7498 70.803974 119.7498 70.249976 L 119.7498 62.249947 C 119.7498 61.695949 120.19625 61.250008 120.75025 61.250008 L 127.74983 61.250008 L 127.74983 54.249919 C 127.74983 53.695919 128.19576 53.24998 128.74976 53.24998 z M 58.560767 83.610917 L 61.389018 86.439168 L 56.439449 91.389254 L 53.610681 88.560486 L 58.560767 83.610917 z M 91.43938 83.610917 L 96.388949 88.560486 L 93.560697 91.389254 L 88.611129 86.439168 L 91.43938 83.610917 z M 73.000195 89.000252 L 76.999951 89.000252 L 76.999951 95.999825 L 73.000195 95.999825 L 73.000195 89.000252 z " />
  </g>
</svg>
