<?xml version="1.0" encoding="UTF-8" standalone="no"?>
<svg
   width="150mm"
   height="110mm"
   viewBox="0 0 150 110"
   version="1.1"
   id="svg8"
   inkscape:version="1.1.1 (3bf5ae0d25, 2021-09-20)"
   sodipodi:docname="front analog sticks struts.svg"
   xmlns:inkscape="http://www.inkscape.org/namespaces/inkscape"
   xmlns:sodipodi="http://sodipodi.sourceforge.net/DTD/sodipodi-0.dtd"
   xmlns="http://www.w3.org/2000/svg"
   xmlns:svg="http://www.w3.org/2000/svg"
   xmlns:rdf="http://www.w3.org/1999/02/22-rdf-syntax-ns#"
   xmlns:cc="http://creativecommons.org/ns#"
   xmlns:dc="http://purl.org/dc/elements/1.1/">
  <defs
     id="defs2" />
  <sodipodi:namedview
     id="base"
     pagecolor="#ffffff"
     bordercolor="#666666"
     borderopacity="1.0"
     inkscape:pageopacity="0.0"
     inkscape:pageshadow="2"
     inkscape:zoom="2.2176894"
     inkscape:cx="283.40308"
     inkscape:cy="207.87402"
     inkscape:document-units="mm"
     inkscape:current-layer="layer1"
     inkscape:document-rotation="0"
     showgrid="false"
     inkscape:showpageshadow="true"
     inkscape:snap-bbox="false"
     inkscape:bbox-nodes="true"
     inkscape:snap-smooth-nodes="true"
     inkscape:pagecheckerboard="0">
    <inkscape:grid
       type="xygrid"
       id="grid833"
       units="mm"
       spacingx="0.25"
       spacingy="0.25"
       empspacing="4" />
  </sodipodi:namedview>
  <metadata
     id="metadata5">
    <rdf:RDF>
      <cc:Work
         rdf:about="">
        <dc:format>image/svg+xml</dc:format>
        <dc:type
           rdf:resource="http://purl.org/dc/dcmitype/StillImage" />
      </cc:Work>
    </rdf:RDF>
  </metadata>
  <g
     inkscape:label="Layer 1"
     inkscape:groupmode="layer"
     id="layer1">
    <path
       id="circle1211"
       style="display:inline;fill:#aad400;fill-opacity:1;stroke:none;stroke-width:7.55906;stroke-linecap:round;stroke-linejoin:round"
       d="M 498.89844 71.810547 L 498.89844 79.511719 A 52.913386 52.913386 0 0 0 449.90625 128.50391 L 411.96875 128.50391 L 411.96875 136.0625 L 449.90625 136.0625 A 52.913386 52.913386 0 0 0 502.67773 185.19727 A 52.913386 52.913386 0 0 0 537.29883 172.25 L 563.15039 198.09961 L 563.15039 187.41211 L 542.64258 166.9043 A 52.913386 52.913386 0 0 0 555.58984 132.2832 A 52.913386 52.913386 0 0 0 506.45703 79.507812 L 506.45703 71.810547 L 498.89844 71.810547 z M 140.94922 178.74414 L 110.23633 209.45898 A 52.913386 52.913386 0 0 0 75.589844 196.53516 A 52.913386 52.913386 0 0 0 22.818359 245.66992 L 15.117188 245.66992 L 15.117188 253.22852 L 22.818359 253.22852 A 52.913386 52.913386 0 0 0 75.589844 302.36133 A 52.913386 52.913386 0 0 0 128.50391 249.44922 A 52.913386 52.913386 0 0 0 115.58008 214.80469 L 146.29492 184.08984 L 140.94922 178.74414 z "
       transform="scale(0.26458333)" />
  </g>
</svg>
