<?xml version="1.0" encoding="UTF-8" standalone="no"?>
<svg
   xmlns:dc="http://purl.org/dc/elements/1.1/"
   xmlns:cc="http://creativecommons.org/ns#"
   xmlns:rdf="http://www.w3.org/1999/02/22-rdf-syntax-ns#"
   xmlns:svg="http://www.w3.org/2000/svg"
   xmlns="http://www.w3.org/2000/svg"
   xmlns:sodipodi="http://sodipodi.sourceforge.net/DTD/sodipodi-0.dtd"
   xmlns:inkscape="http://www.inkscape.org/namespaces/inkscape"
   width="150mm"
   height="110mm"
   viewBox="0 0 150 110"
   version="1.1"
   id="svg8"
   inkscape:version="1.0.2 (e86c870879, 2021-01-15)"
   sodipodi:docname="front borders lower.svg">
  <defs
     id="defs2" />
  <sodipodi:namedview
     id="base"
     pagecolor="#ffffff"
     bordercolor="#666666"
     borderopacity="1.0"
     inkscape:pageopacity="0.0"
     inkscape:pageshadow="2"
     inkscape:zoom="18.511212"
     inkscape:cx="356.49445"
     inkscape:cy="24.545404"
     inkscape:document-units="mm"
     inkscape:current-layer="layer1"
     inkscape:document-rotation="0"
     showgrid="true"
     inkscape:showpageshadow="true"
     inkscape:snap-bbox="false"
     inkscape:bbox-nodes="true"
     inkscape:snap-smooth-nodes="true">
    <inkscape:grid
       type="xygrid"
       id="grid833"
       units="mm"
       spacingx="0.25"
       spacingy="0.25"
       empspacing="4" />
  </sodipodi:namedview>
  <metadata
     id="metadata5">
    <rdf:RDF>
      <cc:Work
         rdf:about="">
        <dc:format>image/svg+xml</dc:format>
        <dc:type
           rdf:resource="http://purl.org/dc/dcmitype/StillImage" />
        <dc:title />
      </cc:Work>
    </rdf:RDF>
  </metadata>
  <g
     inkscape:label="Layer 1"
     inkscape:groupmode="layer"
     id="layer1">
    <path
       id="path1164"
       style="color:#000000;font-style:normal;font-variant:normal;font-weight:normal;font-stretch:normal;font-size:medium;line-height:normal;font-family:sans-serif;font-variant-ligatures:normal;font-variant-position:normal;font-variant-caps:normal;font-variant-numeric:normal;font-variant-alternates:normal;font-variant-east-asian:normal;font-feature-settings:normal;font-variation-settings:normal;text-indent:0;text-align:start;text-decoration:none;text-decoration-line:none;text-decoration-style:solid;text-decoration-color:#000000;letter-spacing:normal;word-spacing:normal;text-transform:none;writing-mode:lr-tb;direction:ltr;text-orientation:mixed;dominant-baseline:auto;baseline-shift:baseline;text-anchor:start;white-space:normal;shape-padding:0;shape-margin:0;inline-size:0;clip-rule:nonzero;display:inline;overflow:visible;visibility:visible;opacity:1;isolation:auto;mix-blend-mode:normal;color-interpolation:sRGB;color-interpolation-filters:linearRGB;solid-color:#000000;solid-opacity:1;vector-effect:none;fill:#784a7a;fill-opacity:0.979889;fill-rule:nonzero;stroke:none;stroke-width:3.77953;stroke-linecap:round;stroke-linejoin:miter;stroke-miterlimit:4;stroke-dasharray:none;stroke-dashoffset:0;stroke-opacity:1;color-rendering:auto;image-rendering:auto;shape-rendering:auto;text-rendering:auto;enable-background:accumulate;stop-color:#000000;stop-opacity:1"
       d="m 115.27539,0 c -2.83465,-2.6416789e-6 -2.83398,3.7792969 -2.83398,3.7792969 V 25.511719 c 0,0 -2.3e-4,3.778973 3.77929,3.779297 C 120,29.291338 120,25.511719 120,25.511719 V 8.5039062 c 0,0 4.3e-4,-0.9453133 0.94531,-0.9453124 l 241.88957,2.307e-4 c 0,0 3.77868,4.612e-4 3.7793,-3.7792969 0,-3.779527577378786 -3.7793,-3.77929689333 -3.7793,-3.77929689333 z m 310.86719,0 c 0,0 -3.78125,-2.3068405e-4 -3.78125,3.7792969 8.7e-4,3.7797581 3.78125,3.7792968 3.78125,3.7792969 h 19.8418 c 0.94488,0 0.94531,0.9453124 0.94531,0.9453124 V 25.511719 c 0,0 -5.4e-4,3.779619 3.77929,3.779297 3.77953,-3.24e-4 3.7793,-3.779297 3.7793,-3.779297 V 3.7792969 c 0,0 -2e-4,-3.7792969 -4.72461,-3.7792969 z M 36.474609,0.02148438 C 16.166706,0.73065189 0,17.47464 0,37.794922 V 188.97656 c 0,2.83465 1.8895104,5.66882 3.7792969,7.5586 l 2.2011719,2.20117 c 1.8897713,1.88977 6.6126202,1.88932 9.4472652,-0.94531 l 22.677735,-22.67774 c 0,0 2.672848,-2.67285 0,-5.3457 -2.672854,-2.67285 -5.345703,0 -5.345703,0 L 10.232422,192.29883 9.1230469,191.19141 C 8.1238872,190.19224 7.5585937,188.97656 7.5585938,188.97656 V 37.794922 c 0,-16.328396 12.8631912,-29.6508503 29.1816402,-30.2207032 2.085401,-0.072236 3.717698,-1.8208141 3.646485,-3.90625 -0.07221,-2.0877701 -1.824422,-3.72101354 -3.91211,-3.64648442 z m 493.980471,0 c -2.08769,-0.07452912 -3.8399,1.55871432 -3.91211,3.64648442 -0.0712,2.085434 1.56108,3.8340109 3.64648,3.90625 16.31845,0.5698529 29.17969,13.8923072 29.17969,30.2207032 V 279.68555 c 0,0 10e-6,0.65022 -1.56445,2.21484 l -8.81446,8.81445 c -0.55014,0.55021 -1.0504,0.54347 -1.59375,0 l -3.77929,-3.78125 c 0,0 -2.6714,-2.67236 -5.34375,0 -2.67236,2.67238 0,5.34571 0,5.34571 l 3.77734,3.77929 c 3.77911,3.77997 8.50586,3.77974 12.28516,0 l 8.81445,-8.81445 c 1.88965,-1.88987 3.7793,-4.72394 3.7793,-7.55859 V 37.794922 c 0,-20.320282 -16.16672,-37.06427011 -36.47461,-37.77343762 z M 7.5585938,328.81836 C 2.8341842,328.81836 0,332.59843 0,336.37891 v 3.77929 c 0,20.93859 16.856343,37.79504 37.794922,37.79492 H 468.66211 c 2.83465,0 5.66883,-1.88953 7.55859,-3.77929 L 480,370.39453 c 1.88976,-1.88976 1.88976,-5.67078 0,-7.56055 l -7.55859,-7.55859 c 0,0 -2.67351,-2.67221 -5.34571,0 -2.6722,2.6722 0,5.34375 0,5.34375 l 5.99414,5.99414 -2.21289,2.21484 c -0.99893,0.99893 -2.21484,1.56641 -2.21484,1.56641 H 37.794922 C 20.913277,370.39462 7.5585937,357.03991 7.5585938,340.1582 v -3.77929 H 41.574219 c 0,0 3.779297,-0.002 3.779297,-3.78125 0,-3.77953 -3.779297,-3.7793 -3.779297,-3.7793 z"
       transform="scale(0.26458333)"
       sodipodi:nodetypes="sccsccscccscccsccsccsccssssccscccccccccccscccccsccccsscssscsssscscccccsccscs" />
  </g>
</svg>
