<?xml version="1.0" encoding="UTF-8" standalone="no"?>
<svg
   width="150mm"
   height="110mm"
   viewBox="0 0 150 110"
   version="1.1"
   id="svg8"
   inkscape:version="1.1.1 (3bf5ae0d25, 2021-09-20)"
   sodipodi:docname="front analog sticks.svg"
   xmlns:inkscape="http://www.inkscape.org/namespaces/inkscape"
   xmlns:sodipodi="http://sodipodi.sourceforge.net/DTD/sodipodi-0.dtd"
   xmlns="http://www.w3.org/2000/svg"
   xmlns:svg="http://www.w3.org/2000/svg"
   xmlns:rdf="http://www.w3.org/1999/02/22-rdf-syntax-ns#"
   xmlns:cc="http://creativecommons.org/ns#"
   xmlns:dc="http://purl.org/dc/elements/1.1/">
  <defs
     id="defs2" />
  <sodipodi:namedview
     id="base"
     pagecolor="#ffffff"
     bordercolor="#666666"
     borderopacity="1.0"
     inkscape:pageopacity="0.0"
     inkscape:pageshadow="2"
     inkscape:zoom="2.2225"
     inkscape:cx="283.2396"
     inkscape:cy="207.87402"
     inkscape:document-units="mm"
     inkscape:current-layer="layer1"
     inkscape:document-rotation="0"
     showgrid="false"
     inkscape:showpageshadow="true"
     inkscape:snap-bbox="true"
     inkscape:bbox-nodes="true"
     inkscape:pagecheckerboard="0">
    <inkscape:grid
       type="xygrid"
       id="grid833"
       units="mm"
       spacingx="0.25"
       spacingy="0.25"
       empspacing="4" />
  </sodipodi:namedview>
  <metadata
     id="metadata5">
    <rdf:RDF>
      <cc:Work
         rdf:about="">
        <dc:format>image/svg+xml</dc:format>
        <dc:type
           rdf:resource="http://purl.org/dc/dcmitype/StillImage" />
        <dc:title />
      </cc:Work>
    </rdf:RDF>
  </metadata>
  <g
     inkscape:label="Layer 1"
     inkscape:groupmode="layer"
     id="layer1">
    <path
       id="path983"
       style="display:inline;opacity:0.5;fill:#5a2ca0;stroke:none;stroke-width:7.55906;stroke-linecap:round;stroke-linejoin:round"
       d="M 453.89844 79.878906 L 439.96094 97.757812 L 454.9668 109.45703 A 52.913385 52.913385 0 0 1 468.90625 91.580078 L 453.89844 79.878906 z M 502.67773 86.929688 A 45.354331 45.354331 0 0 0 457.32227 132.2832 A 45.354331 45.354331 0 0 0 502.67773 177.63867 A 45.354331 45.354331 0 0 0 548.03125 132.2832 A 45.354331 45.354331 0 0 0 502.67773 86.929688 z M 75.589844 204.09375 A 45.354331 45.354331 0 0 0 30.236328 249.44922 A 45.354331 45.354331 0 0 0 75.589844 294.80273 A 45.354331 45.354331 0 0 0 120.94531 249.44922 A 45.354331 45.354331 0 0 0 75.589844 204.09375 z "
       transform="scale(0.26458333)" />
  </g>
</svg>
