<?xml version="1.0" encoding="UTF-8" standalone="no"?>
<svg
   xmlns:dc="http://purl.org/dc/elements/1.1/"
   xmlns:cc="http://creativecommons.org/ns#"
   xmlns:rdf="http://www.w3.org/1999/02/22-rdf-syntax-ns#"
   xmlns:svg="http://www.w3.org/2000/svg"
   xmlns="http://www.w3.org/2000/svg"
   xmlns:sodipodi="http://sodipodi.sourceforge.net/DTD/sodipodi-0.dtd"
   xmlns:inkscape="http://www.inkscape.org/namespaces/inkscape"
   width="150mm"
   height="110mm"
   viewBox="0 0 150 110"
   version="1.1"
   id="svg8"
   inkscape:version="1.0.2 (e86c870879, 2021-01-15)"
   sodipodi:docname="front button system lower.svg">
  <defs
     id="defs2" />
  <sodipodi:namedview
     id="base"
     pagecolor="#ffffff"
     bordercolor="#666666"
     borderopacity="1.0"
     inkscape:pageopacity="0.0"
     inkscape:pageshadow="2"
     inkscape:zoom="1.4142136"
     inkscape:cx="367.15203"
     inkscape:cy="233.74894"
     inkscape:document-units="mm"
     inkscape:current-layer="layer1"
     inkscape:document-rotation="0"
     showgrid="false"
     inkscape:showpageshadow="true"
     inkscape:snap-bbox="true"
     inkscape:bbox-nodes="true">
    <inkscape:grid
       type="xygrid"
       id="grid833"
       units="mm"
       spacingx="0.25"
       spacingy="0.25"
       empspacing="4" />
  </sodipodi:namedview>
  <metadata
     id="metadata5">
    <rdf:RDF>
      <cc:Work
         rdf:about="">
        <dc:format>image/svg+xml</dc:format>
        <dc:type
           rdf:resource="http://purl.org/dc/dcmitype/StillImage" />
        <dc:title></dc:title>
      </cc:Work>
    </rdf:RDF>
  </metadata>
  <g
     inkscape:label="Layer 1"
     inkscape:groupmode="layer"
     id="layer1">
    <path
       id="path998"
       style="fill:#000000;fill-opacity:1;fill-rule:evenodd;stroke:none;stroke-width:0.999999px;stroke-linecap:butt;stroke-linejoin:miter;stroke-opacity:1"
       d="m 218.30078,307.84766 c -2.07242,-0.0987 -3.65039,1.48046 -3.65039,1.48046 l -18.70703,18.70899 c 0,0 -3.34066,3.33902 0,6.67969 3.34066,3.34066 6.67969,0 6.67969,0 l 18.70898,-18.70703 c 0,0 3.34066,-3.34098 0,-6.68165 -1.04396,-1.04395 -2.08924,-1.43561 -3.03125,-1.48046 z m 130.32617,0 c -0.942,0.0448 -1.98534,0.43651 -3.02929,1.48046 -3.34067,3.34067 0,6.68165 0,6.68165 l 18.70703,18.70703 c 0,0 3.34098,3.34066 6.68164,0 3.34065,-3.34066 0,-6.67969 0,-6.67969 L 352.2793,309.32812 c 0,0 -1.57993,-1.57915 -3.65235,-1.48046 z m -112.95312,17.37109 c -2.07242,-0.0987 -3.65235,1.48047 -3.65235,1.48047 l -18.70703,18.70898 c 0,0 -3.34066,3.34098 0,6.68164 3.34066,3.34066 6.68164,0 6.68164,0 l 18.70703,-18.70898 c 0,0 3.34066,-3.34098 0,-6.68164 -1.04395,-1.04396 -2.08728,-1.43561 -3.02929,-1.48047 z m 95.58203,0 c -0.94201,0.0449 -1.98534,0.43651 -3.0293,1.48047 -3.34066,3.34066 0,6.68164 0,6.68164 l 18.70703,18.70898 c 0,0 3.34098,3.34067 6.68164,0 3.34066,-3.34066 0,-6.68164 0,-6.68164 L 334.9082,326.69922 c 0,0 -1.57992,-1.57916 -3.65234,-1.48047 z m -60.07422,6.43555 c -4.72441,0 -4.72461,4.72461 -4.72461,4.72461 v 26.45507 c 0,0 2e-4,4.72461 4.72461,4.72461 4.72441,0 4.72461,-4.72461 4.72461,-4.72461 v -26.45507 c 0,0 -2e-4,-4.72461 -4.72461,-4.72461 z m 24.56641,0 c -4.72441,0 -4.72461,4.72461 -4.72461,4.72461 v 26.45507 c 0,0 2e-4,4.72461 4.72461,4.72461 4.7244,0 4.72461,-4.72461 4.72461,-4.72461 v -26.45507 c 0,0 -2.1e-4,-4.72461 -4.72461,-4.72461 z"
       transform="scale(0.26458333)"
       sodipodi:nodetypes="sccsccssssccsccssccsccssssccsccssccsccssccsccs" />
  </g>
</svg>
