<?xml version="1.0" encoding="UTF-8" standalone="no"?>
<svg
   xmlns:dc="http://purl.org/dc/elements/1.1/"
   xmlns:cc="http://creativecommons.org/ns#"
   xmlns:rdf="http://www.w3.org/1999/02/22-rdf-syntax-ns#"
   xmlns:svg="http://www.w3.org/2000/svg"
   xmlns="http://www.w3.org/2000/svg"
   xmlns:sodipodi="http://sodipodi.sourceforge.net/DTD/sodipodi-0.dtd"
   xmlns:inkscape="http://www.inkscape.org/namespaces/inkscape"
   width="150mm"
   height="110mm"
   viewBox="0 0 150 110"
   version="1.1"
   id="svg8"
   inkscape:version="1.0.2 (e86c870879, 2021-01-15)"
   sodipodi:docname="front borders.svg">
  <defs
     id="defs2" />
  <sodipodi:namedview
     id="base"
     pagecolor="#ffffff"
     bordercolor="#666666"
     borderopacity="1.0"
     inkscape:pageopacity="0.0"
     inkscape:pageshadow="2"
     inkscape:zoom="2.3139015"
     inkscape:cx="283.46457"
     inkscape:cy="207.87402"
     inkscape:document-units="mm"
     inkscape:current-layer="layer1"
     inkscape:document-rotation="0"
     showgrid="false"
     inkscape:showpageshadow="true"
     inkscape:snap-bbox="false"
     inkscape:bbox-nodes="true"
     inkscape:snap-smooth-nodes="true">
    <inkscape:grid
       type="xygrid"
       id="grid833"
       units="mm"
       spacingx="0.25"
       spacingy="0.25"
       empspacing="4" />
  </sodipodi:namedview>
  <metadata
     id="metadata5">
    <rdf:RDF>
      <cc:Work
         rdf:about="">
        <dc:format>image/svg+xml</dc:format>
        <dc:type
           rdf:resource="http://purl.org/dc/dcmitype/StillImage" />
        <dc:title />
      </cc:Work>
    </rdf:RDF>
  </metadata>
  <g
     inkscape:label="Layer 1"
     inkscape:groupmode="layer"
     id="layer1">
    <path
       id="circle1168"
       style="color:#000000;font-style:normal;font-variant:normal;font-weight:normal;font-stretch:normal;font-size:medium;line-height:normal;font-family:sans-serif;font-variant-ligatures:normal;font-variant-position:normal;font-variant-caps:normal;font-variant-numeric:normal;font-variant-alternates:normal;font-variant-east-asian:normal;font-feature-settings:normal;font-variation-settings:normal;text-indent:0;text-align:start;text-decoration:none;text-decoration-line:none;text-decoration-style:solid;text-decoration-color:#000000;letter-spacing:normal;word-spacing:normal;text-transform:none;writing-mode:lr-tb;direction:ltr;text-orientation:mixed;dominant-baseline:auto;baseline-shift:baseline;text-anchor:start;white-space:normal;shape-padding:0;shape-margin:0;inline-size:0;clip-rule:nonzero;display:inline;overflow:visible;visibility:visible;opacity:1;isolation:auto;mix-blend-mode:normal;color-interpolation:sRGB;color-interpolation-filters:linearRGB;solid-color:#000000;solid-opacity:1;vector-effect:none;fill:#71c837;fill-opacity:1;fill-rule:nonzero;stroke:none;stroke-width:3.77953;stroke-linecap:round;stroke-linejoin:miter;stroke-miterlimit:4;stroke-dasharray:none;stroke-dashoffset:0;stroke-opacity:1;color-rendering:auto;image-rendering:auto;shape-rendering:auto;text-rendering:auto;enable-background:accumulate;stop-color:#000000;stop-opacity:1"
       d="m 116.2207,0 c -3.77952,0 -3.77929,3.7792969 -3.77929,3.7792969 V 25.511719 c 0,0 -2.3e-4,3.7793 3.77929,3.779297 3.77953,3e-6 3.7793,-3.779297 3.7793,-3.779297 V 8.5039062 c 0,0 4.3e-4,-0.9453124 0.94531,-0.9453124 h 325.03907 c 0.94488,-10e-8 0.94531,0.9453124 0.94531,0.9453124 V 25.511719 c 0,0 -2.3e-4,3.7793 3.77929,3.779297 3.77953,3e-6 3.7793,-3.779297 3.7793,-3.779297 V 3.7792969 c 0,0 2.3e-4,-3.7792969 -3.7793,-3.7792969 z M 36.474609,0.02148438 C 16.166706,0.73065189 0,17.47464 0,37.794922 V 188.97656 c 4.1574804e-6,2.83465 1.8895301,5.66881 3.7792969,7.5586 l 3.7792969,3.77929 c 1.8897622,1.88979 3.7792972,4.72395 3.7792972,7.5586 v 41.57617 c 0,19.84252 8.504734,34.95936 18.898437,45.35351 1.889838,1.88969 1.889787,5.66887 0,7.5586 L 3.7792969,328.81836 C 1.8895002,330.70809 0,333.54426 0,336.37891 v 3.77929 c 0,20.93862 16.856342,37.79504 37.794922,37.79492 H 468.66211 c 2.83465,0 5.66883,-1.88953 7.55859,-3.77929 L 480,370.39453 c 1.88976,-1.88976 4.72586,-3.78125 7.56055,-3.78125 h 37.79492 c 16.75086,-4.1e-4 30.23663,-13.48355 30.23633,-30.23437 v -37.79688 c -4e-5,-3.77953 1.88957,-5.66872 3.77929,-7.55859 l 3.7793,-3.7793 c 1.88976,-1.8898 3.7793,-4.72395 3.7793,-7.55859 V 37.794922 c 0,-20.320282 -16.16672,-37.06427011 -36.47461,-37.77343762 -2.08769,-0.07452912 -3.8399,1.55871432 -3.91211,3.64648442 -0.0712,2.085434 1.56108,3.8340109 3.64648,3.90625 16.31845,0.5698529 29.17969,13.8923072 29.17969,30.2207032 V 279.68555 c 0,0 -0.56552,1.21591 -1.56445,2.21484 l -8.81446,8.81445 c -0.55033,0.55004 -1.0504,0.54346 -1.59375,0 l -3.77929,-3.78125 c 0,0 -2.6714,-2.67239 -5.34375,0 -2.67236,2.67236 0,5.34571 0,5.34571 l 3.77734,3.77929 c 1.8415,1.84192 3.90822,2.77936 5.98047,2.82618 v 37.49414 c 2.6e-4,12.56693 -10.11062,22.67548 -22.67773,22.67578 h -37.79493 c -3.15117,0 -6.16135,1.19834 -8.63867,2.69922 l -6.47851,-6.47852 c 0,0 -2.67351,-2.67224 -5.34571,0 -2.6722,2.6722 0,5.34375 0,5.34375 l 5.99414,5.99414 -2.21289,2.21484 c -0.99893,0.9989 -2.21484,1.56641 -2.21484,1.56641 H 37.794922 C 21.040138,370.39464 7.5585938,356.91308 7.5585938,340.1582 v -3.77929 H 41.574219 c 0,0 3.779297,-0.002 3.779297,-3.78125 0,-3.77953 -3.779297,-3.7793 -3.779297,-3.7793 H 14.46875 l 21.111328,-21.11133 c 4.785182,-4.78503 4.785133,-13.46331 0,-18.24805 -9.189274,-9.18965 -16.68164,-22.46196 -16.68164,-40.00976 v -41.57617 c 0,-3.74738 -1.687012,-7.2969 -3.574219,-9.97852 l 22.78125,-22.78125 c 0,0 2.672848,-2.67285 0,-5.3457 -2.672855,-2.67285 -5.345703,0 -5.345703,0 L 10.232422,192.29883 9.1230469,191.19141 C 8.1240614,190.1924 7.5585938,188.97656 7.5585938,188.97656 V 37.794922 c 0,-16.328396 12.8631912,-29.6508503 29.1816402,-30.2207032 2.085401,-0.072236 3.717698,-1.8208141 3.646485,-3.90625 -0.07221,-2.0877701 -1.824422,-3.72101354 -3.91211,-3.64648442 z"
       transform="scale(0.26458333)"
       sodipodi:nodetypes="sccsccssccsccsscscscsscccsscssssccccssscccscccccscccccsccscccccsccsccccssccscccccccc" />
  </g>
</svg>
