<?xml version="1.0" encoding="UTF-8" standalone="no"?>
<svg
   xmlns:dc="http://purl.org/dc/elements/1.1/"
   xmlns:cc="http://creativecommons.org/ns#"
   xmlns:rdf="http://www.w3.org/1999/02/22-rdf-syntax-ns#"
   xmlns:svg="http://www.w3.org/2000/svg"
   xmlns="http://www.w3.org/2000/svg"
   xmlns:sodipodi="http://sodipodi.sourceforge.net/DTD/sodipodi-0.dtd"
   xmlns:inkscape="http://www.inkscape.org/namespaces/inkscape"
   width="150mm"
   height="110mm"
   viewBox="0 0 150 110"
   version="1.1"
   id="svg8"
   inkscape:version="1.0.2 (e86c870879, 2021-01-15)"
   sodipodi:docname="front top.svg">
  <defs
     id="defs2" />
  <sodipodi:namedview
     id="base"
     pagecolor="#ffffff"
     bordercolor="#666666"
     borderopacity="1.0"
     inkscape:pageopacity="0.0"
     inkscape:pageshadow="2"
     inkscape:zoom="2.3139015"
     inkscape:cx="283.46457"
     inkscape:cy="207.87402"
     inkscape:document-units="mm"
     inkscape:current-layer="layer1"
     inkscape:document-rotation="0"
     showgrid="false"
     inkscape:showpageshadow="true"
     inkscape:snap-bbox="false"
     inkscape:bbox-nodes="true"
     showguides="true"
     inkscape:guide-bbox="true"
     inkscape:snap-smooth-nodes="true"
     inkscape:snap-object-midpoints="true">
    <inkscape:grid
       type="xygrid"
       id="grid833"
       units="mm"
       spacingx="0.25"
       spacingy="0.25"
       empspacing="4" />
  </sodipodi:namedview>
  <metadata
     id="metadata5">
    <rdf:RDF>
      <cc:Work
         rdf:about="">
        <dc:format>image/svg+xml</dc:format>
        <dc:type
           rdf:resource="http://purl.org/dc/dcmitype/StillImage" />
        <dc:title />
      </cc:Work>
    </rdf:RDF>
  </metadata>
  <g
     inkscape:label="Layer 1"
     inkscape:groupmode="layer"
     id="layer1">
    <path
       id="rect1044-6"
       style="display:inline;opacity:1;fill:#5fbcd3;stroke:none;stroke-width:8.00001;stroke-linecap:round;stroke-linejoin:round"
       d="M 37.794922 0 C 16.856341 0 -8.0125697e-05 16.856339 0 37.794922 L 0 188.97656 C 4.1574803e-06 191.81121 1.8895304 194.64537 3.7792969 196.53516 L 7.5585938 200.31445 C 9.448356 202.20424 11.337891 205.03841 11.337891 207.87305 L 11.337891 249.44922 C 11.337891 269.29173 19.842625 284.40858 30.236328 294.80273 C 32.126167 296.69242 32.126115 300.4716 30.236328 302.36133 L 3.7792969 328.81836 C 1.8895002 330.70809 0 333.54426 0 336.37891 L 0 340.1582 C 0 361.09679 16.856341 377.95324 37.794922 377.95312 L 468.66211 377.95312 C 471.49676 377.95313 474.33094 376.06359 476.2207 374.17383 L 480 370.39453 C 481.88976 368.50477 484.7259 366.61328 487.56055 366.61328 L 525.35547 366.61328 C 542.10633 366.6129 555.5921 353.12977 555.5918 336.37891 L 555.5918 298.58203 C 555.59176 294.8025 557.48137 292.91328 559.37109 291.02344 L 563.15039 287.24414 C 565.04015 285.35438 566.92969 282.52019 566.92969 279.68555 L 566.92969 37.794922 C 566.92969 16.856339 550.07335 1.1696434e-16 529.13477 0 L 37.794922 0 z M 367.55859 9.4492188 L 421.41797 9.4492188 C 421.41797 9.4492188 425.19727 9.4489878 425.19727 13.228516 C 425.19727 17.008043 421.41797 17.007812 421.41797 17.007812 L 367.55859 17.007812 C 367.55859 17.007812 363.7793 17.008043 363.7793 13.228516 C 363.7793 9.4489878 367.55859 9.4492188 367.55859 9.4492188 z M 140.78711 22.677734 L 159.68555 22.677734 C 163.46507 22.677734 163.46484 26.457031 163.46484 26.457031 L 163.46484 60.472656 C 163.46484 60.472656 163.46461 64.251953 167.24414 64.251953 L 200.31445 64.251953 C 200.31445 64.251953 204.09375 64.251722 204.09375 68.03125 C 204.09375 71.810778 200.31445 71.810547 200.31445 71.810547 L 142.67773 71.810547 C 137.00844 71.810547 137.00781 66.142578 137.00781 66.142578 L 137.00781 26.457031 C 137.00781 26.457031 137.00758 22.677734 140.78711 22.677734 z M 74.646484 72.755859 A 22.677165 22.677165 0 0 1 97.322266 95.433594 A 22.677165 22.677165 0 0 1 74.646484 118.10938 A 22.677165 22.677165 0 0 1 51.96875 95.433594 A 22.677165 22.677165 0 0 1 74.646484 72.755859 z M 272.12695 73.701172 L 398.74023 73.701172 C 406.29929 73.701172 406.29883 81.259766 406.29883 81.259766 L 406.29883 279.68555 C 406.29883 279.68555 406.29929 287.24414 398.74023 287.24414 L 154.96094 287.24414 C 147.40188 287.24414 147.40234 279.68555 147.40234 279.68555 L 147.40234 98.267578 C 147.40234 98.267578 147.40188 90.708984 154.96094 90.708984 L 247.55859 90.708984 C 250.39324 90.708984 253.22742 88.81945 255.11719 86.929688 L 264.56641 77.480469 C 266.45617 75.590705 269.29231 73.701172 272.12695 73.701172 z M 446.92969 77.480469 A 11.338583 11.338583 0 0 1 458.26758 88.818359 A 11.338583 11.338583 0 0 1 446.92969 100.1582 A 11.338583 11.338583 0 0 1 435.58984 88.818359 A 11.338583 11.338583 0 0 1 446.92969 77.480469 z M 36.849609 110.55078 A 22.677165 22.677165 0 0 1 59.527344 133.22852 A 22.677165 22.677165 0 0 1 36.849609 155.90625 A 22.677165 22.677165 0 0 1 14.173828 133.22852 A 22.677165 22.677165 0 0 1 36.849609 110.55078 z M 112.44141 110.55078 A 22.677165 22.677165 0 0 1 135.11719 133.22852 A 22.677165 22.677165 0 0 1 112.44141 155.90625 A 22.677165 22.677165 0 0 1 89.763672 133.22852 A 22.677165 22.677165 0 0 1 112.44141 110.55078 z M 74.646484 148.3457 A 22.677165 22.677165 0 0 1 97.322266 171.02344 A 22.677165 22.677165 0 0 1 74.646484 193.70117 A 22.677165 22.677165 0 0 1 51.96875 171.02344 A 22.677165 22.677165 0 0 1 74.646484 148.3457 z M 486.61328 201.25977 L 516.84961 201.25977 C 518.94347 201.25977 520.63086 202.9452 520.63086 205.03906 L 520.63086 231.49609 L 547.08594 231.49609 C 549.1798 231.49609 550.86523 233.18153 550.86523 235.27539 L 550.86523 265.51172 C 550.86523 267.60558 549.1798 269.29102 547.08594 269.29102 L 520.63086 269.29102 L 520.63086 295.74805 C 520.63086 297.84191 518.94347 299.52734 516.84961 299.52734 L 486.61328 299.52734 C 484.51942 299.52734 482.83398 297.84191 482.83398 295.74805 L 482.83398 269.29102 L 456.37891 269.29102 C 454.28505 269.29102 452.59766 267.60558 452.59766 265.51172 L 452.59766 235.27539 C 452.59766 233.18153 454.28505 231.49609 456.37891 231.49609 L 482.83398 231.49609 L 482.83398 205.03906 C 482.83398 202.9452 484.51942 201.25977 486.61328 201.25977 z M 277.79492 315.58984 L 289.13477 315.58984 C 292.80931 315.58984 296.08474 317.19802 298.41992 319.5332 L 304.08984 325.20117 A 3.7795276 3.7795276 0 0 1 304.08984 330.54688 A 3.7795276 3.7795276 0 0 1 298.74414 330.54688 L 293.07617 324.87695 C 291.63183 323.43261 291.12952 323.15039 289.13477 323.15039 L 277.79492 323.15039 C 275.80017 323.15039 275.29786 323.43261 273.85352 324.87695 L 268.18359 330.54688 A 3.7795276 3.7795276 0 0 1 262.83984 330.54688 A 3.7795276 3.7795276 0 0 1 262.83984 325.20117 L 268.50977 319.5332 C 270.84495 317.19802 274.12038 315.58984 277.79492 315.58984 z M 221.33203 316.00977 L 232.02148 326.69922 L 213.31445 345.4082 L 202.62305 334.7168 L 221.33203 316.00977 z M 345.59766 316.00977 L 364.30469 334.7168 L 353.61523 345.4082 L 334.9082 326.69922 L 345.59766 316.00977 z M 275.90625 336.37695 L 291.02344 336.37695 L 291.02344 362.83398 L 275.90625 362.83398 L 275.90625 336.37695 z "
       transform="scale(0.26458333)" />
  </g>
</svg>
