<?xml version="1.0" encoding="UTF-8" standalone="no"?>
<svg
   width="150mm"
   height="110mm"
   viewBox="0 0 150 110"
   version="1.1"
   id="svg8"
   inkscape:version="1.1.1 (3bf5ae0d25, 2021-09-20)"
   sodipodi:docname="front struts.svg"
   xmlns:inkscape="http://www.inkscape.org/namespaces/inkscape"
   xmlns:sodipodi="http://sodipodi.sourceforge.net/DTD/sodipodi-0.dtd"
   xmlns="http://www.w3.org/2000/svg"
   xmlns:svg="http://www.w3.org/2000/svg"
   xmlns:rdf="http://www.w3.org/1999/02/22-rdf-syntax-ns#"
   xmlns:cc="http://creativecommons.org/ns#"
   xmlns:dc="http://purl.org/dc/elements/1.1/">
  <defs
     id="defs2" />
  <sodipodi:namedview
     id="base"
     pagecolor="#ffffff"
     bordercolor="#666666"
     borderopacity="1.0"
     inkscape:pageopacity="0.0"
     inkscape:pageshadow="2"
     inkscape:zoom="2.2176894"
     inkscape:cx="283.40308"
     inkscape:cy="207.87402"
     inkscape:document-units="mm"
     inkscape:current-layer="layer1"
     inkscape:document-rotation="0"
     showgrid="false"
     inkscape:showpageshadow="true"
     inkscape:snap-bbox="false"
     inkscape:bbox-nodes="true"
     inkscape:snap-smooth-nodes="true"
     inkscape:pagecheckerboard="0">
    <inkscape:grid
       type="xygrid"
       id="grid833"
       units="mm"
       spacingx="0.25"
       spacingy="0.25"
       empspacing="4" />
  </sodipodi:namedview>
  <metadata
     id="metadata5">
    <rdf:RDF>
      <cc:Work
         rdf:about="">
        <dc:format>image/svg+xml</dc:format>
        <dc:type
           rdf:resource="http://purl.org/dc/dcmitype/StillImage" />
        <dc:title />
      </cc:Work>
    </rdf:RDF>
  </metadata>
  <g
     inkscape:label="Layer 1"
     inkscape:groupmode="layer"
     id="layer1">
    <path
       id="rect2044"
       style="display:inline;fill:#c8ab37;fill-opacity:1;stroke:none;stroke-width:15.1181;stroke-linecap:round;stroke-linejoin:round;stroke-miterlimit:4;stroke-dasharray:none"
       d="M 147.40234 3.7792969 L 147.40234 15.117188 L 140.78711 15.117188 C 136.37766 15.11715 132.09266 18.437725 130.71875 21.185547 C 129.34484 23.933369 129.44922 26.455078 129.44922 26.455078 L 129.44922 66.140625 C 129.44922 66.140625 129.35842 68.813914 130.70508 71.824219 L 112.60352 89.925781 A 3.7795276 3.7795276 0 0 0 112.60352 95.271484 A 3.7795276 3.7795276 0 0 0 117.94727 95.271484 L 135.86914 77.349609 C 137.84213 78.546632 140.19291 79.368872 142.67773 79.369141 L 147.40234 79.369141 L 147.40234 84.824219 C 139.84986 88.755517 139.8418 98.267578 139.8418 98.267578 L 139.8418 279.68555 C 139.8418 279.68555 139.85374 283.60381 141.84961 287.45117 L 130.71875 298.58203 L 34.960938 298.58203 A 3.7795276 3.7795276 0 0 0 31.181641 302.36133 A 3.7795276 3.7795276 0 0 0 34.960938 306.14258 L 132.2832 306.14258 A 3.7799055 3.7799055 0 0 0 134.95508 305.03516 L 147.04492 292.94531 C 149.06442 294.07758 151.65037 294.80283 154.96094 294.80273 L 241.89062 294.80273 L 241.89062 374.17383 L 249.44922 374.17383 L 249.44922 294.80273 L 317.48047 294.80273 L 317.48047 374.17383 L 325.03906 374.17383 L 325.03906 294.80273 L 398.74023 294.80273 C 413.85831 294.80315 413.85742 279.68555 413.85742 279.68555 L 413.85742 167.86328 L 459.375 213.38086 A 3.7795276 3.7795276 0 0 0 464.71875 213.38086 A 3.7795276 3.7795276 0 0 0 464.71875 208.03711 L 413.85742 157.17383 L 413.85742 81.259766 C 413.85742 81.259766 413.84107 78.641845 412.75586 75.589844 L 563.15039 75.589844 L 563.15039 68.03125 L 406.70508 68.03125 C 404.67801 66.881856 402.07963 66.140625 398.74023 66.140625 L 359.05469 66.140625 L 359.05469 3.7792969 L 351.49609 3.7792969 L 351.49609 66.140625 L 269.29102 66.142578 C 266.45637 66.142578 263.62219 68.032111 261.73242 69.921875 L 252.2832 79.369141 C 250.39344 81.258904 247.55926 83.150391 244.72461 83.150391 L 154.96094 83.150391 L 154.96094 79.369141 L 200.31445 79.369141 C 200.31445 79.369141 202.83811 79.473532 205.58594 78.099609 C 208.33373 76.725702 211.6543 72.4407 211.6543 68.03125 C 211.6543 63.6218 208.33373 59.336798 205.58594 57.962891 C 202.83811 56.588979 200.31445 56.693359 200.31445 56.693359 L 171.02344 56.693359 L 171.02344 26.455078 C 171.02344 26.455078 171.12782 23.933369 169.75391 21.185547 C 168.38 18.437725 164.095 15.112561 159.68555 15.117188 L 154.96094 15.117188 L 154.96094 3.7792969 L 147.40234 3.7792969 z M 140.78711 22.675781 L 159.68555 22.675781 C 163.46507 22.675781 163.46484 26.455078 163.46484 26.455078 L 163.46484 60.472656 C 163.46484 60.472656 163.46461 64.251953 167.24414 64.251953 L 200.31641 64.251953 C 200.31641 64.251953 204.0957 64.251722 204.0957 68.03125 C 204.0957 71.810778 200.31641 71.810547 200.31641 71.810547 L 142.67773 71.810547 C 137.00844 71.810547 137.00781 66.140625 137.00781 66.140625 L 137.00781 26.455078 C 137.00781 26.455078 137.00758 22.675781 140.78711 22.675781 z M 272.12695 73.701172 L 398.74023 73.701172 C 406.29921 73.700851 406.29883 81.259766 406.29883 81.259766 L 406.29883 279.68555 C 406.29883 279.68555 406.29933 287.24414 398.74023 287.24414 L 154.96094 287.24414 C 147.40187 287.24414 147.40234 279.68555 147.40234 279.68555 L 147.40234 98.267578 C 147.40234 98.267578 147.40191 90.709011 154.96094 90.708984 L 247.55859 90.708984 C 250.39324 90.708984 253.22742 88.819451 255.11719 86.929688 L 264.56641 77.480469 C 266.45617 75.590705 269.29231 73.701172 272.12695 73.701172 z M 525.35547 336.37891 L 525.35547 360 C 525.35547 360 525.35524 363.7793 529.13477 363.7793 C 532.91429 363.7793 532.91406 360 532.91406 360 L 532.91406 343.9375 L 548.97656 343.9375 C 548.97656 343.9375 552.75586 343.93773 552.75586 340.1582 C 552.75586 336.37868 548.97656 336.37891 548.97656 336.37891 L 525.35547 336.37891 z M 34.015625 343.9375 L 34.015625 374.17383 L 41.576172 374.17383 L 41.574219 343.9375 L 34.015625 343.9375 z "
       transform="scale(0.26458333)" />
  </g>
</svg>
